<?xml version="1.0" encoding="UTF-8" standalone="no"?>
<!-- Created with Inkscape (http://www.inkscape.org/) -->

<svg
   xmlns:dc="http://purl.org/dc/elements/1.1/"
   xmlns:cc="http://creativecommons.org/ns#"
   xmlns:rdf="http://www.w3.org/1999/02/22-rdf-syntax-ns#"
   xmlns:svg="http://www.w3.org/2000/svg"
   xmlns="http://www.w3.org/2000/svg"
   xmlns:sodipodi="http://sodipodi.sourceforge.net/DTD/sodipodi-0.dtd"
   xmlns:inkscape="http://www.inkscape.org/namespaces/inkscape"
   id="svg3761"
   version="1.1"
   inkscape:version="0.91 r13725"
   width="200.91406"
   height="256.09384"
   viewBox="0 0 200.91406 256.09384"
   sodipodi:docname="balkong.svg">
  <metadata
     id="metadata3767">
    <rdf:RDF>
      <cc:Work
         rdf:about="">
        <dc:format>image/svg+xml</dc:format>
        <dc:type
           rdf:resource="http://purl.org/dc/dcmitype/StillImage" />
        <dc:title />
      </cc:Work>
    </rdf:RDF>
  </metadata>
  <defs
     id="defs3765">
    <inkscape:path-effect
       effect="spiro"
       id="path-effect3621"
       is_visible="true" />
    <inkscape:path-effect
       effect="spiro"
       id="path-effect3617"
       is_visible="true" />
    <inkscape:path-effect
       effect="spiro"
       id="path-effect3613"
       is_visible="true" />
    <inkscape:path-effect
       is_visible="true"
       id="path-effect3497"
       effect="spiro" />
    <inkscape:path-effect
       is_visible="true"
       id="path-effect3493"
       effect="spiro" />
    <inkscape:path-effect
       is_visible="true"
       id="path-effect3489"
       effect="spiro" />
    <inkscape:path-effect
       effect="spiro"
       id="path-effect3899"
       is_visible="true" />
    <inkscape:path-effect
       effect="spiro"
       id="path-effect3895"
       is_visible="true" />
    <inkscape:path-effect
       effect="spiro"
       id="path-effect3891"
       is_visible="true" />
    <inkscape:path-effect
       effect="spiro"
       id="path-effect3887"
       is_visible="true" />
    <inkscape:path-effect
       effect="spiro"
       id="path-effect3883"
       is_visible="true" />
    <inkscape:path-effect
       effect="spiro"
       id="path-effect3879"
       is_visible="true" />
    <inkscape:path-effect
       effect="spiro"
       id="path-effect3891-6"
       is_visible="true" />
    <inkscape:path-effect
       effect="spiro"
       id="path-effect3899-4"
       is_visible="true" />
    <inkscape:path-effect
       effect="spiro"
       id="path-effect3895-7"
       is_visible="true" />
  </defs>
  <sodipodi:namedview
     pagecolor="#ffffff"
     bordercolor="#666666"
     borderopacity="1"
     objecttolerance="10"
     gridtolerance="10"
     guidetolerance="10"
     inkscape:pageopacity="0"
     inkscape:pageshadow="2"
     inkscape:window-width="1200"
     inkscape:window-height="1898"
     id="namedview3763"
     showgrid="false"
     inkscape:zoom="1.4463016"
     inkscape:cx="503.88174"
     inkscape:cy="175.72318"
     inkscape:window-x="1912"
     inkscape:window-y="-8"
     inkscape:window-maximized="1"
     inkscape:current-layer="svg3761"
     showguides="true"
     fit-margin-top="0"
     fit-margin-left="0"
     fit-margin-right="0"
     fit-margin-bottom="0" />
  <g
     id="g3916"
     transform="translate(-31.101807,48.132714)">
    <g
       id="g3928">
      <path
         style="fill:#333333;fill-rule:evenodd;stroke:none;stroke-width:1px;stroke-linecap:butt;stroke-linejoin:miter;stroke-opacity:1"
         d="m 146.78943,-44.993478 16.61039,7.658674 11.49802,11.385733 11.55762,19.5947347 3.75977,20.7934533 -1.02931,109.255383 0.58008,81.79882 -36.17969,0.0312 c -7.69208,0.007 29.58094,-87.87224 28.02158,-90.34792 C 167.11263,68.439923 150.59325,42.983223 146.78943,-44.993478 Z"
         id="path3924"
         inkscape:connector-curvature="0"
         sodipodi:nodetypes="cccccccscc" />
      <path
         sodipodi:nodetypes="cccccccscc"
         inkscape:connector-curvature="0"
         id="path3920"
         d="m 114.56738,-44.337859 -15.988776,9.190851 -11.428214,9.594274 -10.347642,19.5083077 -4.105478,20.6205983 0.33789,108.996098 -0.58008,81.79882 36.17969,0.0312 c 7.69208,0.007 -26.909326,-86.42587 -25.349966,-88.90155 C 98.979673,65.419811 107.79412,48.340897 114.56738,-44.337859 Z"
         style="fill:#333333;fill-rule:evenodd;stroke:none;stroke-width:1px;stroke-linecap:butt;stroke-linejoin:miter;stroke-opacity:1" />
      <path
         style="opacity:1;fill:none;fill-opacity:1;stroke:#000000;stroke-width:1.5;stroke-linecap:butt;stroke-linejoin:bevel;stroke-miterlimit:4;stroke-dasharray:none;stroke-dashoffset:0;stroke-opacity:1"
         d="m 130.78899,-47.379764 c -29.05174,1.317492 -58.296366,28.995942 -58.17969,65.013673 l 0,188.742191 117.33789,0 0,-188.742191 c 0.37906,-38.979801 -30.83765,-65.336962 -59.1582,-65.013673 z"
         id="rect3901"
         inkscape:connector-curvature="0"
         sodipodi:nodetypes="cccccc" />
    </g>
    <g
       id="g3465"
       transform="translate(280,0)" />
  </g>
  <path
     style="fill:#000000;fill-rule:evenodd;stroke:none;stroke-width:1px;stroke-linecap:butt;stroke-linejoin:miter;stroke-opacity:1"
     d="m 0,131.86532 0,29.52148 c 0,0 1.629306,3.93257 2.396484,6.40625 5.17126,16.67419 5.17126,35.69885 0,52.37304 C 1.629306,222.63977 0,226.57234 0,226.57234 l 0,29.52149 20.914063,0 0,-29.52149 c 0,0 -1.681686,-3.92353 -2.460938,-6.40625 -5.227986,-16.65649 -5.227986,-35.71655 0,-52.37304 0.779252,-2.48272 2.460938,-6.40625 2.460938,-6.40625 l 0,-29.52148 z"
     id="path3783"
     inkscape:connector-curvature="0"
     sodipodi:nodetypes="ccssccccssccc" />
  <path
     sodipodi:nodetypes="ccssccccssccc"
     inkscape:connector-curvature="0"
     id="path3796"
     d="m 60,131.86532 0,29.52148 c 0,0 1.629306,3.93257 2.396484,6.40625 5.17126,16.67419 5.17126,35.69885 0,52.37304 C 61.629306,222.63977 60,226.57234 60,226.57234 l 0,29.52149 20.914063,0 0,-29.52149 c 0,0 -1.68169,-3.92353 -2.46094,-6.40625 -5.22798,-16.65649 -5.22798,-35.71655 0,-52.37304 0.77925,-2.48272 2.46094,-6.40625 2.46094,-6.40625 l 0,-29.52148 z"
     style="fill:#000000;fill-rule:evenodd;stroke:none;stroke-width:1px;stroke-linecap:butt;stroke-linejoin:miter;stroke-opacity:1" />
  <path
     style="fill:#000000;fill-rule:evenodd;stroke:none;stroke-width:1px;stroke-linecap:butt;stroke-linejoin:miter;stroke-opacity:1"
     d="m 120,131.86532 0,29.52148 c 0,0 1.6293,3.93257 2.39648,6.40625 5.17126,16.67419 5.17126,35.69885 0,52.37304 C 121.6293,222.63977 120,226.57234 120,226.57234 l 0,29.52149 20.91406,0 0,-29.52149 c 0,0 -1.68169,-3.92353 -2.46094,-6.40625 -5.22798,-16.65649 -5.22798,-35.71655 0,-52.37304 0.77925,-2.48272 2.46094,-6.40625 2.46094,-6.40625 l 0,-29.52148 z"
     id="path3798"
     inkscape:connector-curvature="0"
     sodipodi:nodetypes="ccssccccssccc" />
  <path
     sodipodi:nodetypes="ccssccccssccc"
     inkscape:connector-curvature="0"
     id="path3800"
     d="m 180,131.86532 0,29.52148 c 0,0 1.6293,3.93257 2.39648,6.40625 5.17126,16.67419 5.17126,35.69885 0,52.37304 C 181.6293,222.63977 180,226.57234 180,226.57234 l 0,29.52149 20.91406,0 0,-29.52149 c 0,0 -1.68169,-3.92353 -2.46094,-6.40625 -5.22798,-16.65649 -5.22798,-35.71655 0,-52.37304 0.77925,-2.48272 2.46094,-6.40625 2.46094,-6.40625 l 0,-29.52148 z"
     style="fill:#000000;fill-rule:evenodd;stroke:none;stroke-width:1px;stroke-linecap:butt;stroke-linejoin:miter;stroke-opacity:1" />
  <path
     style="fill:#000000;fill-opacity:1;fill-rule:evenodd;stroke:none;stroke-width:1px;stroke-linecap:butt;stroke-linejoin:miter;stroke-opacity:1"
     d="m 0.763453,256.09383 198.365497,0 0,-3.42235 -198.365497,0 z"
     id="path3804"
     inkscape:connector-curvature="0"
     sodipodi:nodetypes="ccccc" />
  <path
     sodipodi:nodetypes="ccccc"
     inkscape:connector-curvature="0"
     id="path3806"
     d="m 0.763453,135.28767 198.365497,0 0,-3.42235 -198.365497,0 z"
     style="fill:#000000;fill-opacity:1;fill-rule:evenodd;stroke:none;stroke-width:1px;stroke-linecap:butt;stroke-linejoin:miter;stroke-opacity:1" />
  <path
     style="opacity:1;fill:#000000;fill-opacity:1;stroke:none;stroke-width:6;stroke-linecap:butt;stroke-linejoin:bevel;stroke-miterlimit:4;stroke-dasharray:none;stroke-dashoffset:0;stroke-opacity:1"
     d="m 50.322158,131.92523 99.248092,0 -4,17.84509 -91.248092,0 z"
     id="rect3810"
     inkscape:connector-curvature="0"
     sodipodi:nodetypes="ccccc" />
  <path
     style="fill:none;fill-rule:evenodd;stroke:#000000;stroke-width:0.83101869px;stroke-linecap:butt;stroke-linejoin:miter;stroke-opacity:1"
     d="m 75.547333,135.93791 c 0.240246,-1.56857 0.6509,-3.11097 1.22241,-4.59134 0.916313,-2.3735 2.286275,-4.62923 4.27839,-6.21183 2.049796,-1.62842 4.607643,-2.44205 7.066971,-3.33934 2.459328,-0.8973 4.970682,-1.97428 6.685009,-3.95279 1.490794,-1.72053 2.249697,-4.09782 1.861673,-6.34106 -0.194012,-1.12162 -0.666487,-2.19683 -1.379604,-3.08404 -0.713117,-0.8872 -1.667178,-1.58268 -2.738032,-1.96862 -1.070854,-0.38593 -2.255978,-0.45825 -3.360532,-0.18323 -1.104554,0.27502 -2.122817,0.89947 -2.851537,1.77391 -0.72872,0.87443 -1.160676,1.99626 -1.184175,3.13429 -0.0235,1.13804 0.366003,2.28385 1.095417,3.15771 0.683961,0.8194 1.659349,1.39038 2.708686,1.58561 1.049337,0.19524 2.164813,0.0133 3.097714,-0.50529"
     id="path3889"
     inkscape:path-effect="#path-effect3891"
     inkscape:original-d="m 75.547333,135.93791 c -0.26846,-1.70762 0.52699,-3.05489 1.22241,-4.59134 1.05136,-2.32292 1.83817,-4.7741 4.27839,-6.21183 3.49574,-2.05961 13.75198,-2.72092 13.75198,-7.29213 0,-4.1294 -5.75021,-8.47176 -8.55679,-3.51104 -0.98619,1.74313 5.8064,2.90192 5.8064,1.08032"
     inkscape:connector-curvature="0" />
  <path
     style="fill:none;fill-rule:evenodd;stroke:#000000;stroke-width:1px;stroke-linecap:butt;stroke-linejoin:miter;stroke-opacity:1"
     d="m 120.36757,138.70856 c -5.7524,-4.22083 -10.70523,-9.52744 -14.51979,-15.55692 -2.54763,-4.02691 -4.63496,-8.56879 -4.56113,-13.33335 0.0369,-2.38228 0.63483,-4.77772 1.88581,-6.80545 1.25098,-2.02772 3.1762,-3.666747 5.44099,-4.406561 2.3293,-0.760885 4.87247,-0.552052 7.2599,0 1.42255,0.32894 2.81996,0.777194 4.14851,1.382838 2.30924,1.052713 4.45849,2.649413 5.67226,4.878213 0.60689,1.1144 0.96531,2.37286 0.96446,3.6418 -8.5e-4,1.26893 -0.37002,2.54567 -1.10537,3.57981 -0.64545,0.9077 -1.56333,1.61471 -2.59645,2.03086 -1.03313,0.41615 -2.17753,0.54316 -3.28061,0.38911 -0.96329,-0.13453 -1.89918,-0.48307 -2.70057,-1.03426 -0.80138,-0.5512 -1.46541,-1.30634 -1.88518,-2.18374 -0.41978,-0.87739 -0.59115,-1.87604 -0.46109,-2.83995 0.13006,-0.9639 0.56499,-1.88841 1.24404,-2.58478 0.75164,-0.77081 1.79681,-1.24809 2.87156,-1.31131 1.07476,-0.0632 2.16868,0.28823 3.0055,0.9656"
     id="path3893"
     inkscape:path-effect="#path-effect3895"
     inkscape:original-d="m 120.36757,138.70856 c -4.51706,-4.0965 -11.90337,-9.45193 -14.51979,-15.55692 -2.36454,-5.51725 -1.60387,-20.17581 2.76567,-24.545361 1.55709,-1.55709 5.80634,-0.581423 7.2599,0 1.30943,0.523772 2.83238,0.50542 4.14851,1.382838 2.9715,1.981003 8.00865,8.383883 5.53135,12.099823 -0.66114,0.99172 -4.43492,3.86211 -5.87706,2.41997 -0.57611,-0.57611 -5.8259,-7.63119 -3.8028,-8.64273 1.5555,-0.77775 4.22286,-0.34571 5.87706,-0.34571"
     inkscape:connector-curvature="0" />
  <path
     style="fill:none;fill-rule:evenodd;stroke:#000000;stroke-width:1px;stroke-linecap:butt;stroke-linejoin:miter;stroke-opacity:1"
     d="m 93.599443,135.25147 c 4.995042,-1.12979 9.592327,-3.94835 12.865007,-7.88744 3.27267,-3.93909 5.20106,-8.97502 5.39639,-14.09251 0.19532,-5.11749 -1.34359,-10.28576 -4.30649,-14.46285 -2.9629,-4.177091 -7.33196,-7.337878 -12.226357,-8.845124 -1.552854,-0.478207 -3.171922,-0.795767 -4.795499,-0.732248 -1.623578,0.06352 -3.257643,0.526976 -4.563872,1.493311 -1.30623,0.966334 -2.253094,2.46505 -2.376529,4.085174 -0.06172,0.810062 0.08175,1.638107 0.43539,2.36951 0.353637,0.731403 0.919288,1.362677 1.62064,1.772696 0.596215,0.348555 1.286193,0.534944 1.976818,0.534013 0.690624,-9.31e-4 1.380097,-0.18918 1.97537,-0.539341 0.595274,-0.35016 1.094798,-0.861322 1.431159,-1.4645 0.336362,-0.603178 0.508684,-1.296803 0.493713,-1.987266"
     id="path3897"
     inkscape:path-effect="#path-effect3899"
     inkscape:original-d="m 93.599443,135.25147 c 0.50585,-10.1479 15.016117,-38.644136 1.72855,-45.287924 -4.94641,-2.473202 -13.41924,3.379377 -9.67987,8.988443 6.80248,10.203721 12.38185,-3.457094 5.87706,-3.457094"
     inkscape:connector-curvature="0" />
  <g
     id="g3553">
    <path
       style="fill:#000000;fill-rule:evenodd;stroke:none;stroke-width:1px;stroke-linecap:butt;stroke-linejoin:miter;stroke-opacity:1"
       d="m 280,131.86532 0,29.52148 c 0,0 1.62931,3.93257 2.39648,6.40625 5.17126,16.67419 5.17126,35.69885 0,52.37304 C 281.62931,222.63977 280,226.57234 280,226.57234 l 0,29.52149 20.91406,0 0,-29.52149 c 0,0 -1.68168,-3.92353 -2.46093,-6.40625 -5.22799,-16.65649 -5.22799,-35.71655 0,-52.37304 0.77925,-2.48272 2.46093,-6.40625 2.46093,-6.40625 l 0,-29.52148 z"
       id="path3473"
       inkscape:connector-curvature="0"
       sodipodi:nodetypes="ccssccccssccc" />
    <path
       sodipodi:nodetypes="ccssccccssccc"
       inkscape:connector-curvature="0"
       id="path3475"
       d="m 340,131.86532 0,29.52148 c 0,0 1.62931,3.93257 2.39648,6.40625 5.17126,16.67419 5.17126,35.69885 0,52.37304 C 341.62931,222.63977 340,226.57234 340,226.57234 l 0,29.52149 20.91406,0 0,-29.52149 c 0,0 -1.68169,-3.92353 -2.46094,-6.40625 -5.22798,-16.65649 -5.22798,-35.71655 0,-52.37304 0.77925,-2.48272 2.46094,-6.40625 2.46094,-6.40625 l 0,-29.52148 z"
       style="fill:#000000;fill-rule:evenodd;stroke:none;stroke-width:1px;stroke-linecap:butt;stroke-linejoin:miter;stroke-opacity:1" />
    <path
       style="fill:none;fill-rule:evenodd;stroke:#8ce68c;stroke-width:0.83101869px;stroke-linecap:butt;stroke-linejoin:miter;stroke-opacity:1"
       d="m 355.54733,135.93791 c 0.24025,-1.56857 0.6509,-3.11097 1.22241,-4.59134 0.91631,-2.3735 2.28627,-4.62923 4.27839,-6.21183 2.0498,-1.62842 4.60764,-2.44205 7.06697,-3.33934 2.45933,-0.8973 4.97068,-1.97428 6.68501,-3.95279 1.49079,-1.72053 2.2497,-4.09782 1.86167,-6.34106 -0.19401,-1.12162 -0.66648,-2.19683 -1.3796,-3.08404 -0.71312,-0.8872 -1.66718,-1.58268 -2.73803,-1.96862 -1.07086,-0.38593 -2.25598,-0.45825 -3.36054,-0.18323 -1.10455,0.27502 -2.12281,0.89947 -2.85153,1.77391 -0.72872,0.87443 -1.16068,1.99626 -1.18418,3.13429 -0.0235,1.13804 0.36601,2.28385 1.09542,3.15771 0.68396,0.8194 1.65935,1.39038 2.70869,1.58561 1.04933,0.19524 2.16481,0.0133 3.09771,-0.50529"
       id="path3487"
       inkscape:path-effect="#path-effect3489"
       inkscape:original-d="m 355.54733,135.93791 c -0.26846,-1.70762 0.52699,-3.05489 1.22241,-4.59134 1.05136,-2.32292 1.83817,-4.7741 4.27839,-6.21183 3.49574,-2.05961 13.75198,-2.72092 13.75198,-7.29213 0,-4.1294 -5.75021,-8.47176 -8.55679,-3.51104 -0.98619,1.74313 5.8064,2.90192 5.8064,1.08032"
       inkscape:connector-curvature="0" />
    <path
       style="fill:#000000;fill-rule:evenodd;stroke:none;stroke-width:1px;stroke-linecap:butt;stroke-linejoin:miter;stroke-opacity:1"
       d="m 400,131.86532 0,29.52148 c 0,0 1.6293,3.93257 2.39648,6.40625 5.17126,16.67419 5.17126,35.69885 0,52.37304 C 401.6293,222.63977 400,226.57234 400,226.57234 l 0,29.52149 20.91406,0 0,-29.52149 c 0,0 -1.68169,-3.92353 -2.46094,-6.40625 -5.22798,-16.65649 -5.22798,-35.71655 0,-52.37304 0.77925,-2.48272 2.46094,-6.40625 2.46094,-6.40625 l 0,-29.52148 z"
       id="path3477"
       inkscape:connector-curvature="0"
       sodipodi:nodetypes="ccssccccssccc" />
    <path
       sodipodi:nodetypes="ccssccccssccc"
       inkscape:connector-curvature="0"
       id="path3479"
       d="m 460,131.86532 0,29.52148 c 0,0 1.6293,3.93257 2.39648,6.40625 5.17126,16.67419 5.17126,35.69885 0,52.37304 C 461.6293,222.63977 460,226.57234 460,226.57234 l 0,29.52149 20.91406,0 0,-29.52149 c 0,0 -1.68169,-3.92353 -2.46094,-6.40625 -5.22798,-16.65649 -5.22798,-35.71655 0,-52.37304 0.77925,-2.48272 2.46094,-6.40625 2.46094,-6.40625 l 0,-29.52148 z"
       style="fill:#000000;fill-rule:evenodd;stroke:none;stroke-width:1px;stroke-linecap:butt;stroke-linejoin:miter;stroke-opacity:1" />
    <path
       style="fill:#000000;fill-opacity:1;fill-rule:evenodd;stroke:none;stroke-width:1px;stroke-linecap:butt;stroke-linejoin:miter;stroke-opacity:1"
       d="m 280.76345,256.09383 198.3655,0 0,-3.42235 -198.3655,0 z"
       id="path3481"
       inkscape:connector-curvature="0"
       sodipodi:nodetypes="ccccc" />
    <path
       style="fill:none;fill-rule:evenodd;stroke:#8ce68c;stroke-width:1px;stroke-linecap:butt;stroke-linejoin:miter;stroke-opacity:1"
       d="m 400.36757,138.70856 c -5.7524,-4.22083 -10.70523,-9.52744 -14.51979,-15.55692 -2.54763,-4.02691 -4.63496,-8.56879 -4.56113,-13.33335 0.0369,-2.38228 0.63483,-4.77772 1.88581,-6.80545 1.25098,-2.02772 3.1762,-3.666747 5.44099,-4.406561 2.3293,-0.760885 4.87247,-0.552052 7.2599,0 1.42255,0.32894 2.81996,0.777194 4.14851,1.382838 2.30924,1.052713 4.45849,2.649413 5.67226,4.878213 0.60689,1.1144 0.96531,2.37286 0.96446,3.6418 -8.5e-4,1.26893 -0.37002,2.54567 -1.10537,3.57981 -0.64545,0.9077 -1.56333,1.61471 -2.59645,2.03086 -1.03313,0.41615 -2.17753,0.54316 -3.28061,0.38911 -0.96329,-0.13453 -1.89918,-0.48307 -2.70057,-1.03426 -0.80138,-0.5512 -1.46541,-1.30634 -1.88518,-2.18374 -0.41978,-0.87739 -0.59115,-1.87604 -0.46109,-2.83995 0.13006,-0.9639 0.56499,-1.88841 1.24404,-2.58478 0.75164,-0.77081 1.79681,-1.24809 2.87156,-1.31131 1.07476,-0.0632 2.16868,0.28823 3.0055,0.9656"
       id="path3491"
       inkscape:path-effect="#path-effect3493"
       inkscape:original-d="m 400.36757,138.70856 c -4.51706,-4.0965 -11.90337,-9.45193 -14.51979,-15.55692 -2.36454,-5.51725 -1.60387,-20.17581 2.76567,-24.545361 1.55709,-1.55709 5.80634,-0.581423 7.2599,0 1.30943,0.523772 2.83238,0.50542 4.14851,1.382838 2.9715,1.981003 8.00865,8.383883 5.53135,12.099823 -0.66114,0.99172 -4.43492,3.86211 -5.87706,2.41997 -0.57611,-0.57611 -5.8259,-7.63119 -3.8028,-8.64273 1.5555,-0.77775 4.22286,-0.34571 5.87706,-0.34571"
       inkscape:connector-curvature="0" />
    <path
       sodipodi:nodetypes="ccccc"
       inkscape:connector-curvature="0"
       id="path3483"
       d="m 280.76345,135.28767 198.3655,0 0,-3.42235 -198.3655,0 z"
       style="fill:#000000;fill-opacity:1;fill-rule:evenodd;stroke:none;stroke-width:1px;stroke-linecap:butt;stroke-linejoin:miter;stroke-opacity:1" />
    <path
       style="fill:none;fill-rule:evenodd;stroke:#8ce68c;stroke-width:1px;stroke-linecap:butt;stroke-linejoin:miter;stroke-opacity:1"
       d="m 373.59944,135.25147 c 4.99504,-1.12979 9.59232,-3.94835 12.865,-7.88744 3.27268,-3.93909 5.20107,-8.97502 5.3964,-14.09251 0.19532,-5.11749 -1.3436,-10.28576 -4.3065,-14.46285 -2.9629,-4.177091 -7.33196,-7.337878 -12.22635,-8.845124 -1.55285,-0.478207 -3.17192,-0.795767 -4.7955,-0.732248 -1.62358,0.06352 -3.25764,0.526976 -4.56387,1.493311 -1.30623,0.966334 -2.2531,2.46505 -2.37653,4.085174 -0.0617,0.810062 0.0817,1.638107 0.43539,2.36951 0.35364,0.731403 0.91929,1.362677 1.62064,1.772696 0.59622,0.348555 1.28619,0.534944 1.97682,0.534013 0.69062,-9.31e-4 1.3801,-0.18918 1.97537,-0.539341 0.59527,-0.35016 1.0948,-0.861322 1.43116,-1.4645 0.33636,-0.603178 0.50868,-1.296803 0.49371,-1.987266"
       id="path3495"
       inkscape:path-effect="#path-effect3497"
       inkscape:original-d="m 373.59944,135.25147 c 0.50585,-10.1479 15.01612,-38.644136 1.72855,-45.287924 -4.94641,-2.473202 -13.41924,3.379377 -9.67987,8.988443 6.80248,10.203721 12.38185,-3.457094 5.87706,-3.457094"
       inkscape:connector-curvature="0" />
    <path
       style="opacity:1;fill:#505050;fill-opacity:1;stroke:none;stroke-width:6;stroke-linecap:butt;stroke-linejoin:bevel;stroke-miterlimit:4;stroke-dasharray:none;stroke-dashoffset:0;stroke-opacity:1"
       d="m 330.32216,131.92523 99.24809,0 -4,17.84509 -91.24809,0 z"
       id="path3485"
       inkscape:connector-curvature="0"
       sodipodi:nodetypes="ccccc" />
  </g>
  <g
     id="g3634">
    <g
       transform="translate(260,0)"
       id="g3565">
      <g
         style="stroke:#8ce68c;stroke-opacity:1"
         transform="translate(-6.5684778,24.026801)"
         id="g3625">
        <path
           style="fill:none;fill-rule:evenodd;stroke:#8ce68c;stroke-width:1px;stroke-linecap:butt;stroke-linejoin:miter;stroke-opacity:1"
           d="m 384.91015,114.37727 c 0.92306,-6.13897 0.99659,-12.40508 0.21785,-18.564027 -0.33616,-2.658629 -0.83035,-5.297447 -1.48477,-7.89611 -1.67866,-6.6659 -4.41527,-13.057543 -8.00732,-18.918373 -1.5306,-2.497349 -3.21593,-4.899856 -5.0431,-7.189165"
           id="path3611"
           inkscape:original-d="m 384.91015,114.37727 c 0.0515,-6.64636 1.69239,-12.12182 0.21785,-18.564027 -0.47139,-2.05945 -1.05126,-5.83014 -1.48477,-7.89611 -1.28318,-6.115294 -4.89349,-13.485656 -8.00732,-18.918373 -1.47362,-2.571034 -3.9695,-4.930287 -5.0431,-7.189165"
           inkscape:connector-curvature="0"
           inkscape:path-effect="#path-effect3613"
           sodipodi:nodetypes="csssc" />
        <path
           style="fill:none;fill-rule:evenodd;stroke:#8ce68c;stroke-width:1px;stroke-linecap:butt;stroke-linejoin:miter;stroke-opacity:1"
           d="m 383.84114,88.828773 c -0.89365,-3.421052 -0.90466,-7.068755 -0.0317,-10.495139 0.87299,-3.426384 2.62809,-6.624111 5.04978,-9.200472 4.18066,-4.447681 10.37487,-6.924928 16.46957,-6.586667"
           id="path3615"
           inkscape:original-d="m 383.84114,88.828773 c 1.99064,-6.15268 4.7085,-12.597815 5.0181,-19.695611 0.32377,-7.422389 9.88774,-6.718106 16.46957,-6.586667"
           inkscape:connector-curvature="0"
           inkscape:path-effect="#path-effect3617"
           sodipodi:nodetypes="csc" />
        <path
           style="fill:none;fill-rule:evenodd;stroke:#8ce68c;stroke-width:1px;stroke-linecap:butt;stroke-linejoin:miter;stroke-opacity:1"
           d="m 383.40903,86.659023 c -1.03996,-3.354991 -1.78216,-6.802221 -2.21501,-10.287923 -0.71912,-5.790918 -0.58196,-11.672301 0.17576,-17.458294 0.46752,-3.569987 1.17004,-7.109072 1.52365,-10.692134 0.35362,-3.583063 0.35017,-7.248239 -0.57724,-10.727219 -0.80081,-3.004062 -2.30767,-5.845887 -4.50739,-8.042913 -0.58001,-0.579305 -1.20593,-1.112636 -1.86996,-1.593346"
           id="path3619"
           inkscape:original-d="m 383.40903,86.659023 c 0.0749,-1.79499 -2.10237,-8.507607 -2.21501,-10.287923 -0.29696,-4.694591 -0.56355,-12.930782 0.17576,-17.458294 0.89807,-5.499744 2.18331,-16.015388 0.94641,-21.419353 -0.62025,-2.709856 -2.81606,-5.839992 -4.50739,-8.042913 -0.47859,-0.623357 -1.51931,-0.855555 -1.86996,-1.593346"
           inkscape:connector-curvature="0"
           inkscape:path-effect="#path-effect3621"
           sodipodi:nodetypes="ccsssc" />
      </g>
      <path
         style="fill:#000000;fill-rule:evenodd;stroke:none;stroke-width:1px;stroke-linecap:butt;stroke-linejoin:miter;stroke-opacity:1"
         d="m 280,131.86532 0,29.52148 c 0,0 1.62931,3.93257 2.39648,6.40625 5.17126,16.67419 5.17126,35.69885 0,52.37304 C 281.62931,222.63977 280,226.57234 280,226.57234 l 0,29.52149 20.91406,0 0,-29.52149 c 0,0 -1.68168,-3.92353 -2.46093,-6.40625 -5.22799,-16.65649 -5.22799,-35.71655 0,-52.37304 0.77925,-2.48272 2.46093,-6.40625 2.46093,-6.40625 l 0,-29.52148 z"
         id="path3567"
         inkscape:connector-curvature="0"
         sodipodi:nodetypes="ccssccccssccc" />
      <path
         sodipodi:nodetypes="ccssccccssccc"
         inkscape:connector-curvature="0"
         id="path3569"
         d="m 340,131.86532 0,29.52148 c 0,0 1.62931,3.93257 2.39648,6.40625 5.17126,16.67419 5.17126,35.69885 0,52.37304 C 341.62931,222.63977 340,226.57234 340,226.57234 l 0,29.52149 20.91406,0 0,-29.52149 c 0,0 -1.68169,-3.92353 -2.46094,-6.40625 -5.22798,-16.65649 -5.22798,-35.71655 0,-52.37304 0.77925,-2.48272 2.46094,-6.40625 2.46094,-6.40625 l 0,-29.52148 z"
         style="fill:#000000;fill-rule:evenodd;stroke:none;stroke-width:1px;stroke-linecap:butt;stroke-linejoin:miter;stroke-opacity:1" />
      <path
         style="fill:#000000;fill-rule:evenodd;stroke:none;stroke-width:1px;stroke-linecap:butt;stroke-linejoin:miter;stroke-opacity:1"
         d="m 400,131.86532 0,29.52148 c 0,0 1.6293,3.93257 2.39648,6.40625 5.17126,16.67419 5.17126,35.69885 0,52.37304 C 401.6293,222.63977 400,226.57234 400,226.57234 l 0,29.52149 20.91406,0 0,-29.52149 c 0,0 -1.68169,-3.92353 -2.46094,-6.40625 -5.22798,-16.65649 -5.22798,-35.71655 0,-52.37304 0.77925,-2.48272 2.46094,-6.40625 2.46094,-6.40625 l 0,-29.52148 z"
         id="path3573"
         inkscape:connector-curvature="0"
         sodipodi:nodetypes="ccssccccssccc" />
      <path
         sodipodi:nodetypes="ccssccccssccc"
         inkscape:connector-curvature="0"
         id="path3575"
         d="m 460,131.86532 0,29.52148 c 0,0 1.6293,3.93257 2.39648,6.40625 5.17126,16.67419 5.17126,35.69885 0,52.37304 C 461.6293,222.63977 460,226.57234 460,226.57234 l 0,29.52149 20.91406,0 0,-29.52149 c 0,0 -1.68169,-3.92353 -2.46094,-6.40625 -5.22798,-16.65649 -5.22798,-35.71655 0,-52.37304 0.77925,-2.48272 2.46094,-6.40625 2.46094,-6.40625 l 0,-29.52148 z"
         style="fill:#000000;fill-rule:evenodd;stroke:none;stroke-width:1px;stroke-linecap:butt;stroke-linejoin:miter;stroke-opacity:1" />
      <path
         style="fill:#000000;fill-opacity:1;fill-rule:evenodd;stroke:none;stroke-width:1px;stroke-linecap:butt;stroke-linejoin:miter;stroke-opacity:1"
         d="m 280.76345,256.09383 198.3655,0 0,-3.42235 -198.3655,0 z"
         id="path3577"
         inkscape:connector-curvature="0"
         sodipodi:nodetypes="ccccc" />
      <path
         sodipodi:nodetypes="ccccc"
         inkscape:connector-curvature="0"
         id="path3581"
         d="m 280.76345,135.28767 198.3655,0 0,-3.42235 -198.3655,0 z"
         style="fill:#000000;fill-opacity:1;fill-rule:evenodd;stroke:none;stroke-width:1px;stroke-linecap:butt;stroke-linejoin:miter;stroke-opacity:1" />
      <path
         style="opacity:1;fill:#505050;fill-opacity:1;stroke:none;stroke-width:6;stroke-linecap:butt;stroke-linejoin:bevel;stroke-miterlimit:4;stroke-dasharray:none;stroke-dashoffset:0;stroke-opacity:1"
         d="m 330.32216,131.92523 99.24809,0 -4,17.84509 -91.24809,0 z"
         id="path3585"
         inkscape:connector-curvature="0"
         sodipodi:nodetypes="ccccc" />
    </g>
    <circle
       r="6.3557892"
       cy="90.97126"
       cx="621.52496"
       id="path3589"
       style="opacity:1;fill:#8ce68c;fill-opacity:1;stroke:none;stroke-width:1.5;stroke-linecap:butt;stroke-linejoin:bevel;stroke-miterlimit:4;stroke-dasharray:none;stroke-dashoffset:0;stroke-opacity:1" />
    <circle
       style="opacity:1;fill:#8ce68c;fill-opacity:1;stroke:none;stroke-width:1.5;stroke-linecap:butt;stroke-linejoin:bevel;stroke-miterlimit:4;stroke-dasharray:none;stroke-dashoffset:0;stroke-opacity:1"
       id="circle3630"
       cx="626.3736"
       cy="57.053402"
       r="6.3557892" />
    <circle
       r="6.3557892"
       cy="91.999702"
       cx="658.04285"
       id="circle3632"
       style="opacity:1;fill:#8ce68c;fill-opacity:1;stroke:none;stroke-width:1.5;stroke-linecap:butt;stroke-linejoin:bevel;stroke-miterlimit:4;stroke-dasharray:none;stroke-dashoffset:0;stroke-opacity:1" />
  </g>
</svg>
