<?xml version="1.0" encoding="UTF-8" standalone="no"?>
<!-- Created with Inkscape (http://www.inkscape.org/) -->

<svg
   xmlns:dc="http://purl.org/dc/elements/1.1/"
   xmlns:cc="http://creativecommons.org/ns#"
   xmlns:rdf="http://www.w3.org/1999/02/22-rdf-syntax-ns#"
   xmlns:svg="http://www.w3.org/2000/svg"
   xmlns="http://www.w3.org/2000/svg"
   xmlns:sodipodi="http://sodipodi.sourceforge.net/DTD/sodipodi-0.dtd"
   xmlns:inkscape="http://www.inkscape.org/namespaces/inkscape"
   width="510.72006"
   height="477.80612"
   id="svg2"
   version="1.1"
   inkscape:version="0.48.4 r9939"
   sodipodi:docname="New document 1">
  <defs
     id="defs4" />
  <sodipodi:namedview
     id="base"
     pagecolor="#ffffff"
     bordercolor="#666666"
     borderopacity="1.0"
     inkscape:pageopacity="0.0"
     inkscape:pageshadow="2"
     inkscape:zoom="0.7"
     inkscape:cx="-136.50897"
     inkscape:cy="221.11798"
     inkscape:document-units="px"
     inkscape:current-layer="layer1"
     showgrid="false"
     fit-margin-top="0"
     fit-margin-left="0"
     fit-margin-right="0"
     fit-margin-bottom="0"
     inkscape:window-width="1680"
     inkscape:window-height="987"
     inkscape:window-x="3832"
     inkscape:window-y="22"
     inkscape:window-maximized="1" />
  <metadata
     id="metadata7">
    <rdf:RDF>
      <cc:Work
         rdf:about="">
        <dc:format>image/svg+xml</dc:format>
        <dc:type
           rdf:resource="http://purl.org/dc/dcmitype/StillImage" />
        <dc:title></dc:title>
      </cc:Work>
    </rdf:RDF>
  </metadata>
  <g
     inkscape:label="Layer 1"
     inkscape:groupmode="layer"
     id="layer1"
     transform="translate(-9.2138964,-8.2787587)">
    <path
       style="fill:#9e7b5a;fill-opacity:1;stroke:#000000;stroke-width:1px;stroke-linecap:butt;stroke-linejoin:miter;stroke-opacity:1"
       d="m 294.25657,143.85595 c -12.673,-3.45785 -21.3094,-16.80142 -27.1428,-28.57143 -11.2464,-22.691473 -15.2641,-49.867533 -12.1429,-75.000003 1.4064,-11.324204 2.2418,-30.066864 13.5714,-31.4285739 14.486,-1.74107 28.7418,26.3617399 39.2858,45.0000039 11.2203,19.83379 21.5015,50.302423 21.4285,65.000003 -0.048,9.59781 -20,20.71429 -20,20.71429 0,0 -9.9833,5.65452 -15,4.28571 z"
       id="path3000"
       inkscape:connector-curvature="0"
       sodipodi:nodetypes="sssssscs" />
    <path
       style="fill:#d1b2a0;fill-opacity:1;stroke:#000000;stroke-width:1px;stroke-linecap:butt;stroke-linejoin:miter;stroke-opacity:1"
       d="m 433.35547,268.48381 c 19.1259,-21.48578 -13.0981,-37.84167 -39.396,-49.49747 -52.4298,-23.23801 -113.6578,-40.43046 -169.7056,-28.28427 -46.00046,9.96881 -86.22478,43.33296 -117.1777,78.7919 -27.629291,31.65146 -59.377561,71.29683 -55.558391,113.13708 3.69752,40.50757 24.27274,64.55136 60.609151,82.83251 42.41201,21.33783 88.79364,-10.79839 129.29954,-28.28427 36.6995,-15.84271 78.212,-32.44299 98.9949,-67.68023 55.1453,-93.49772 51.5057,-54.475 92.9341,-101.01525 z"
       id="path3002"
       inkscape:connector-curvature="0"
       sodipodi:nodetypes="ssssssass" />
    <path
       style="fill:#d1b2a0;fill-opacity:1;stroke:#000000;stroke-width:1px;stroke-linecap:butt;stroke-linejoin:miter;stroke-opacity:1"
       d="m 488.52127,222.33456 c 1.8567,-25.11773 -21.4608,-45.36416 -41.9507,-65.90597 -28.0002,-28.07116 -65.8231,-45.9282 -100.1921,-44.09403 -38.8535,2.07348 -85.2866,49.8323 -60.7143,80 7.5177,9.22961 17.5153,30.73646 61.0534,46.65175 19.628,7.17498 24.9283,34.40247 43.9466,34.77681 34.8724,0.68641 95.286,-16.64434 97.8571,-51.42856 z"
       id="path2996"
       inkscape:connector-curvature="0"
       sodipodi:nodetypes="sssssss" />
    <path
       sodipodi:nodetypes="sssssscs"
       inkscape:connector-curvature="0"
       id="path3008"
       d="m 288.48927,110.62518 c -6.624,-1.80738 -11.1382,-8.78191 -14.1872,-14.933963 -5.8784,-11.86059 -7.9784,-26.06522 -6.347,-39.20167 0.7351,-5.91903 1.1718,-15.71561 7.0936,-16.42736 7.5717,-0.91003 15.023,13.77898 20.5342,23.521 5.8648,10.3669 11.2386,26.2925 11.2005,33.97477 -0.025,5.016673 -10.4538,10.827133 -10.4538,10.827133 0,0 -5.2181,2.95556 -7.8403,2.24009 z"
       style="fill:#6b4a32;fill-opacity:1;stroke:none" />
    <path
       style="fill:#9e7b5a;fill-opacity:1;stroke:#000000;stroke-width:1px;stroke-linecap:butt;stroke-linejoin:miter;stroke-opacity:1"
       d="m 344.23557,176.62027 c 20.7621,-3.65776 13.5607,-43.66156 12.1429,-74.28571 -1.0611,-22.918953 0.3398,-75.665657 -41.4286,-74.285727 -29.2807,4.13198 -26.4982,57.580594 -20,86.428577 5.8098,25.79196 23.2485,66.72997 49.2857,62.14286 z"
       id="path2998"
       inkscape:connector-curvature="0"
       sodipodi:nodetypes="sscss" />
    <path
       sodipodi:nodetypes="sscss"
       inkscape:connector-curvature="0"
       id="path3004"
       d="m 335.03907,140.24776 c 11.7399,-2.06827 7.6679,-24.68833 6.8661,-42.004693 -0.6,-12.95946 0.1922,-42.78496 -23.4256,-42.00469 -16.5568,2.33642 -14.9834,32.55882 -11.309,48.870843 3.2852,14.584 13.1458,37.73231 27.8685,35.13854 z"
       style="fill:#6b4a32;fill-opacity:1;stroke:none" />
    <path
       style="fill:#e9e4e0;fill-opacity:1;stroke:none"
       d="m 450.48327,199.78713 c 2.1395,-6.60368 -1.9951,-15.85444 -8.0812,-19.1929 -13.177,-7.2281 -39.2786,-6.53659 -44.4467,7.57614 -4.3141,11.78075 11.8634,26.75807 24.2437,28.78935 10.8842,1.78581 24.8848,-6.67979 28.2842,-17.17259 z"
       id="path3778"
       inkscape:connector-curvature="0"
       sodipodi:nodetypes="saaas" />
    <path
       sodipodi:type="arc"
       style="fill:#000000;fill-opacity:1;stroke:none"
       id="path3780"
       sodipodi:cx="520.71429"
       sodipodi:cy="466.64789"
       sodipodi:rx="14.285714"
       sodipodi:ry="14.285714"
       d="m 535.00001,466.64789 c 0,7.88978 -6.39593,14.28571 -14.28572,14.28571 -7.88978,0 -14.28571,-6.39593 -14.28571,-14.28571 0,-7.88978 6.39593,-14.28572 14.28571,-14.28572 7.88979,0 14.28572,6.39594 14.28572,14.28572 z"
       transform="translate(-92.029891,-271.17625)" />
    <path
       sodipodi:type="arc"
       style="fill:#ffffff;fill-opacity:1;stroke:none"
       id="path3782"
       sodipodi:cx="1045.7142"
       sodipodi:cy="208.07646"
       sodipodi:rx="4.2857141"
       sodipodi:ry="4.2857141"
       d="m 1049.9999,208.07646 c 0,2.36694 -1.9187,4.28572 -4.2857,4.28572 -2.3669,0 -4.2857,-1.91878 -4.2857,-4.28572 0,-2.36693 1.9188,-4.28571 4.2857,-4.28571 2.367,0 4.2857,1.91878 4.2857,4.28571 z"
       transform="matrix(0.37499998,0,0,0.37499998,30.470099,112.08583)" />
    <path
       style="fill:#e7ddc8;fill-opacity:1;stroke:#000000;stroke-width:1;stroke-linecap:butt;stroke-linejoin:miter;stroke-opacity:1"
       d="m 65.537389,393.36991 c -2.71872,-9.27189 -7.44062,-20.80847 -16.65166,-23.7267 -11.96854,-3.79186 -29.33926,1.77437 -35.44227,12.74602 -7.7768098,13.98071 -2.89256,37.49106 10.01933,46.93681 11.0143,8.05757 32.39355,4.85597 40.74718,-3.97749 8.35363,-8.83344 4.32934,-21.74095 1.32742,-31.97864 z"
       id="path3803"
       inkscape:connector-curvature="0"
       sodipodi:nodetypes="aaaaza" />
    <path
       sodipodi:nodetypes="casssac"
       inkscape:connector-curvature="0"
       id="path3799"
       d="m 173.43578,309.60134 c 0,0 28.88279,-5.00316 38.33849,3.12665 21.3453,18.35231 18.8914,68.78635 15.002,80.25074 -3.8894,11.46438 -30.004,56.80084 -40.00536,62.01193 -10.00135,5.21109 -49.45109,14.59104 -55.00739,5.73219 -5.5563,-8.85885 -27.33642,-39.7837 -24.44775,-61.49082 4.79747,-36.0508 37.22723,-78.68741 66.12001,-89.63069 z"
       style="fill:#d1b2a0;fill-opacity:1;stroke:#000000;stroke-width:1;stroke-linecap:butt;stroke-linejoin:miter;stroke-opacity:1" />
    <path
       sodipodi:nodetypes="caaassssc"
       inkscape:connector-curvature="0"
       id="path3801"
       d="m 238.78137,420.8006 c 0,0 14.3,-5.1639 20.3831,-1.93625 11.7747,6.24768 25.7026,22.86781 20.3831,35.49783 -12.8659,30.54672 -62.4619,14.03547 -93.88576,20.00787 -15.38571,2.92419 -34.04525,17.86258 -46.3252,7.74498 -10.54003,-8.68405 -14.20638,-30.33451 3.706,-36.78866 17.91243,-6.45416 45.70755,-21.94411 56.20786,-16.78079 10.5004,5.16332 19.7654,0 25.3245,-1.29083 5.559,-1.29083 14.2064,-6.45415 14.2064,-6.45415 z"
       style="fill:#d1b2a0;fill-opacity:1;stroke:#000000;stroke-width:1;stroke-linecap:butt;stroke-linejoin:miter;stroke-opacity:1" />
    <path
       style="fill:#e9e4e0;fill-opacity:1;stroke:none"
       d="m 470.22077,204.45704 c 13.209,-6.64118 20.7669,6.23698 17.3458,22.20623 -1.2551,5.85886 -4.686,11.62906 -8.6336,15.57634 -4.2756,4.27525 -10.044,3.08582 -14.6097,-3.6475 -9.8882,-14.58254 -1.7139,-30.30828 5.8975,-34.13507 z"
       id="path3818"
       inkscape:connector-curvature="0"
       sodipodi:nodetypes="sssss" />
    <path
       sodipodi:nodetypes="ssccs"
       inkscape:connector-curvature="0"
       id="path3820"
       d="m 484.32917,215.94279 c 2.7575,-1.32058 3.557,-2.28141 5.1794,-1.00447 2.3592,1.85683 3.5414,9.12086 2.5246,13.69212 -2.1793,4.67645 -8.1878,7.06052 -10.6449,3.79958 -5.1165,-7.00925 -0.9586,-14.61976 2.9409,-16.48723 z"
       style="fill:#000000;fill-opacity:1;stroke:none" />
    <path
       style="fill:none;stroke:#000000;stroke-width:1px;stroke-linecap:butt;stroke-linejoin:miter;stroke-opacity:1"
       d="m 477.74387,236.59767 c 0,0 -1.7249,10.9983 0.079,22.43437 2.3674,15.00708 8.4922,22.56563 8.4922,22.56563"
       id="path3824"
       inkscape:connector-curvature="0"
       sodipodi:nodetypes="csc" />
    <path
       style="fill:none;stroke:#000000;stroke-width:1px;stroke-linecap:butt;stroke-linejoin:miter;stroke-opacity:1"
       d="m 497.48497,189.99052 c 0,0 -2.5917,0.44876 -6.5153,9.45903 -5.2858,12.13869 -1.7577,16.98662 -2.7704,16.96954 0,0 2.2151,-8.90299 12.4418,-17.84227 10.2267,-8.93928 11.5152,-6.68855 11.5152,-6.68855"
       id="path3828"
       inkscape:connector-curvature="0"
       sodipodi:nodetypes="csczc" />
    <path
       style="fill:none;stroke:#000000;stroke-width:1px;stroke-linecap:butt;stroke-linejoin:miter;stroke-opacity:1"
       d="m 487.29117,216.81956 c 0,0 4.1649,-6.52659 15.9519,-12.92893 11.7871,-6.40235 16.1909,-5.99964 16.1909,-5.99964"
       id="path3830"
       inkscape:connector-curvature="0"
       sodipodi:nodetypes="czc" />
    <path
       sodipodi:nodetypes="csczc"
       inkscape:connector-curvature="0"
       id="path3836"
       d="m 463.98927,261.88442 c 0,0 -1.3922,-2.23164 2.7126,-11.16084 5.5299,-12.02942 11.4957,-12.62864 10.8083,-13.37241 0,0 -5.1631,7.58371 -5.0152,21.16584 0.1478,13.58211 2.6847,13.04333 2.6847,13.04333"
       style="fill:none;stroke:#000000;stroke-width:1px;stroke-linecap:butt;stroke-linejoin:miter;stroke-opacity:1" />
    <path
       style="fill:#d1b2a0;fill-opacity:1;stroke:#000000;stroke-width:1;stroke-linecap:butt;stroke-linejoin:miter;stroke-opacity:1"
       d="m 388.18387,393.38358 c 5.78778,12.4851 9.8327,23.50376 1.77624,28.69106 -26.98144,17.37249 -57.80651,-28.1603 -85.01046,-45.18226 -13.27203,-8.30453 -36.58854,-11.80803 -37.95967,-27.65993 -1.17687,-13.60588 18.86041,-37.80855 36.00857,-29.53508 17.14819,8.27349 34.09572,29.42195 37.75899,40.53486 3.66334,11.11298 18.8363,10.54338 23.64962,13.60962 8.69195,3.82733 18.56868,9.81968 23.77671,19.54173 z"
       id="path3838"
       inkscape:connector-curvature="0"
       sodipodi:nodetypes="caassscc" />
  </g>
</svg>
