<?xml version="1.0" encoding="UTF-8" standalone="no"?>
<!-- Created with Inkscape (http://www.inkscape.org/) -->

<svg
   xmlns:dc="http://purl.org/dc/elements/1.1/"
   xmlns:cc="http://creativecommons.org/ns#"
   xmlns:rdf="http://www.w3.org/1999/02/22-rdf-syntax-ns#"
   xmlns:svg="http://www.w3.org/2000/svg"
   xmlns="http://www.w3.org/2000/svg"
   xmlns:xlink="http://www.w3.org/1999/xlink"
   xmlns:sodipodi="http://sodipodi.sourceforge.net/DTD/sodipodi-0.dtd"
   xmlns:inkscape="http://www.inkscape.org/namespaces/inkscape"
   width="159.08789mm"
   height="154.29549mm"
   viewBox="0 0 563.69725 546.71629"
   id="svg6150"
   version="1.1"
   inkscape:version="0.91 r13725"
   sodipodi:docname="Logo #2 (passer og hjerte).svg">
  <defs
     id="defs6152">
    <circle
       r="230.81985"
       cy="461.92801"
       cx="-1907.6731"
       style="fill:#ffeeaa;stroke:none;stroke-width:0.88075382"
       id="path4038"
       transform="translate(3.3770872,-0.41841893)" />
  </defs>
  <sodipodi:namedview
     id="base"
     pagecolor="#ffffff"
     bordercolor="#666666"
     borderopacity="1.0"
     inkscape:pageopacity="0.0"
     inkscape:pageshadow="2"
     inkscape:zoom="0.98994949"
     inkscape:cx="258.86075"
     inkscape:cy="222.97139"
     inkscape:document-units="px"
     inkscape:current-layer="layer1"
     showgrid="false"
     fit-margin-top="0"
     fit-margin-left="0"
     fit-margin-right="0"
     fit-margin-bottom="0"
     inkscape:window-width="1920"
     inkscape:window-height="1138"
     inkscape:window-x="-8"
     inkscape:window-y="-8"
     inkscape:window-maximized="1" />
  <metadata
     id="metadata6155">
    <rdf:RDF>
      <cc:Work
         rdf:about="">
        <dc:format>image/svg+xml</dc:format>
        <dc:type
           rdf:resource="http://purl.org/dc/dcmitype/StillImage" />
        <dc:title></dc:title>
      </cc:Work>
    </rdf:RDF>
  </metadata>
  <g
     inkscape:label="Layer 1"
     inkscape:groupmode="layer"
     id="layer1"
     transform="translate(390.42005,578.13877)">
    <g
       transform="translate(728.56452,-2478.4167)"
       id="g6123">
      <g
         style="stroke:none"
         transform="matrix(1.135391,0,0,1.135391,1333.2249,1660.9296)"
         id="g4049">
        <circle
           r="230.81985"
           cy="461.92801"
           cx="-1907.6731"
           style="fill:#ffeeaa;stroke:none;stroke-width:0.88075382"
           id="circle6143"
           transform="translate(3.3770872,-0.41841893)" />
        <text
           xml:space="preserve"
           style="font-style:normal;font-variant:normal;font-weight:normal;font-stretch:normal;font-size:78.50605011px;line-height:125%;font-family:'Edwardian Script ITC';-inkscape-font-specification:'Edwardian Script ITC';letter-spacing:0px;word-spacing:0px;fill:#000000;fill-opacity:1;stroke:none"
           id="text4040"
           sodipodi:linespacing="125%"
           transform="matrix(-1,0,0,-1,-3809.1063,923.18423)"><textPath
             style="font-style:normal;font-variant:normal;font-weight:normal;font-stretch:normal;font-size:63.41427612px;font-family:'Edwardian Script ITC';-inkscape-font-specification:'Edwardian Script ITC';stroke:none"
             xlink:href="#path4038"
             id="textPath4044">       Tre Ingeniõrer og en Sykepleier</textPath></text>
      </g>
      <g
         style="opacity:0.8"
         transform="translate(1048.2427,1988.2806)"
         id="g4018">
        <path
           sodipodi:nodetypes="scsscsscsscss"
           inkscape:connector-curvature="0"
           id="rect4014"
           d="m -1922.8571,65.20536 c -20.2041,20.204103 0,85.71875 0,85.71875 0,0 -65.5147,-20.20411 -85.7188,0 -21.552,21.55203 -21.552,69.88547 0,91.4375 20.2041,20.20411 85.7188,0 85.7188,0 0,0 -20.2041,65.51465 0,85.71875 21.552,21.55203 69.8855,21.55203 91.4375,0 20.2041,-20.2041 0,-85.71875 0,-85.71875 0,0 65.5146,20.20409 85.7187,0 21.552,-21.55203 21.552,-69.88547 0,-91.4375 -20.2041,-20.20409 -85.7187,0 -85.7187,0 0,0 20.2041,-65.514647 0,-85.71875 -21.552,-21.552025 -69.8855,-21.552025 -91.4375,0 z"
           style="fill:#ff0000;fill-opacity:1;stroke:none" />
      </g>
      <path
         sodipodi:nodetypes="cccccccccccscccccccccscccsccsccsc"
         inkscape:connector-curvature="0"
         id="path4030"
         d="m -830.42283,1966.4023 c -4.0713,-0.01 -8.0953,0.5251 -8.0953,1.6852 -0.088,3.3837 -1.2631,24.6127 -0.6279,25.3104 0.5489,0.6028 4.9456,-0.2906 6.2451,0.3305 1.4656,0.7004 -4.9404,10.5061 -6.8397,15.9925 -2.8149,8.13 -95.0663,371.1406 -94.6523,371.5188 0.4157,0.3798 3.3607,0.1231 3.6346,0.4626 0.4464,0.5533 0.1417,2.1725 0,3.4695 -0.1267,1.1695 -0.1322,2.0816 -0.1322,2.0816 0,0 0.379,-1.0909 0.793,-2.1147 0.615,-1.5199 0.9264,-2.8601 1.586,-3.3703 0.5248,-0.4057 2.951,0.2032 3.2052,0 0.8978,-0.7178 94.9166,-370.1641 94.9166,-370.1641 0,0 99.3815,371.4228 100.0806,371.9012 0.6967,0.4767 4.2955,0.066 4.2955,0.066 0,0 0.6855,4.0263 0.8591,4.1303 0.1941,0.1162 0.8697,0.096 0.9252,-0.066 0.087,-0.2529 -0.6938,-4.0973 -0.6938,-4.0973 0,0 4.1025,-1.4747 4.4262,-1.7686 -6.9994,-30.4101 -10.5554,-40.9971 -16.6074,-64.6627 1.7026,-0.2619 3.7753,-1.2395 4.1737,-0.903 0.6459,0.546 1.3563,4.5625 1.9495,4.6921 0.7189,0.1569 2.9267,-0.2436 3.1389,-0.76 0.16,-0.3892 -3.8123,-11.911 -4.1302,-11.9614 -0.9417,-0.149 -2.9788,0.3183 -3.3372,0.7931 -0.3755,0.4969 2.1701,4.8175 1.7512,5.0224 -0.7381,0.361 -2.3615,0.5104 -4.2525,0.9657 -23.9381,-89.9806 -77.8752,-288.2748 -82.5008,-305.9291 -1.6355,-4.411 -8.7057,-14.4077 -7.3024,-15.2325 0.7452,-0.4381 5.2703,0.5644 6.1458,-0.1983 0.7746,-0.6746 -0.1739,-22.2127 -0.6278,-25.6078 -0.1372,-1.0268 -4.2552,-1.5789 -8.3267,-1.586 z"
         style="fill:#1a1a1a;stroke:none" />
    </g>
  </g>
</svg>
