<?xml version="1.0" encoding="UTF-8" standalone="no"?>
<!-- Created with Inkscape (http://www.inkscape.org/) -->

<svg
   xmlns:dc="http://purl.org/dc/elements/1.1/"
   xmlns:cc="http://creativecommons.org/ns#"
   xmlns:rdf="http://www.w3.org/1999/02/22-rdf-syntax-ns#"
   xmlns:svg="http://www.w3.org/2000/svg"
   xmlns="http://www.w3.org/2000/svg"
   xmlns:sodipodi="http://sodipodi.sourceforge.net/DTD/sodipodi-0.dtd"
   xmlns:inkscape="http://www.inkscape.org/namespaces/inkscape"
   width="232.01912mm"
   height="144.01549mm"
   viewBox="0 0 822.11499 510.2911"
   id="svg5543"
   version="1.1"
   inkscape:version="0.48.4 r9939"
   sodipodi:docname="Logo #1 (konstruert hjerte).svg">
  <defs
     id="defs5545" />
  <sodipodi:namedview
     id="base"
     pagecolor="#ffffff"
     bordercolor="#666666"
     borderopacity="1.0"
     inkscape:pageopacity="0.0"
     inkscape:pageshadow="2"
     inkscape:zoom="0.98994949"
     inkscape:cx="383.20569"
     inkscape:cy="295.45588"
     inkscape:document-units="px"
     inkscape:current-layer="g4904"
     showgrid="false"
     fit-margin-top="0"
     fit-margin-left="0"
     fit-margin-right="0"
     fit-margin-bottom="0"
     inkscape:window-width="1680"
     inkscape:window-height="987"
     inkscape:window-x="-8"
     inkscape:window-y="-8"
     inkscape:window-maximized="1" />
  <metadata
     id="metadata5548">
    <rdf:RDF>
      <cc:Work
         rdf:about="">
        <dc:format>image/svg+xml</dc:format>
        <dc:type
           rdf:resource="http://purl.org/dc/dcmitype/StillImage" />
        <dc:title />
      </cc:Work>
    </rdf:RDF>
  </metadata>
  <g
     inkscape:label="Layer 1"
     inkscape:groupmode="layer"
     id="layer1"
     transform="translate(31.057479,-14.359568)">
    <g
       transform="translate(86.550503,-1501.752)"
       id="g4904">
      <text
         sodipodi:linespacing="125%"
         id="text4770"
         y="1559.183"
         x="-118.47613"
         style="font-size:41.72102737px;font-style:normal;font-weight:normal;line-height:125%;letter-spacing:0px;word-spacing:0px;fill:#000000;fill-opacity:1;stroke:none;font-family:sans-serif"
         xml:space="preserve"><tspan
           style="font-style:normal;font-variant:normal;font-weight:normal;font-stretch:normal;stroke:none;font-family:Omnibus;-inkscape-font-specification:Omnibus"
           y="1559.183"
           x="-118.47613"
           id="tspan4772"
           sodipodi:role="line">TRE INGENIÓRER OG EN SYKEPLEIER</tspan></text>
      <path
         style="opacity:1;fill:#ffeeaa;fill-opacity:1;stroke:none;stroke-width:2.87881613;stroke-linecap:butt;stroke-linejoin:bevel;stroke-miterlimit:4;stroke-dasharray:none;stroke-opacity:1"
         d="m 203.69966,1596.4998 a 126.66791,126.66791 0 0 0 -126.66791,126.6679 126.66791,126.66791 0 0 0 37.82949,90.1429 l -0.053,0.055 179.13882,179.1388 175.45924,-175.4638 a 126.66791,126.66791 0 0 0 40.46095,-92.6576 126.66791,126.66791 0 0 0 -126.66791,-126.6679 126.66791,126.66791 0 0 0 -89.07678,36.6915 l -0.17504,-0.175 -0.053,0.055 a 126.66791,126.66791 0 0 0 -90.19238,-37.7846 z"
         id="path4762"
         inkscape:connector-curvature="0" />
      <path
         inkscape:connector-curvature="0"
         id="path4798"
         d="m 115.00238,1812.7647 -34.76561,34.7656"
         style="opacity:1;fill:none;fill-rule:evenodd;stroke:#000000;stroke-width:0.75;stroke-linecap:butt;stroke-linejoin:bevel;stroke-opacity:1" />
      <path
         style="opacity:1;fill:none;fill-rule:evenodd;stroke:#000000;stroke-width:0.75;stroke-linecap:butt;stroke-linejoin:bevel;stroke-opacity:1"
         d="m 508.74009,1848.9791 -36.27452,-36.2745"
         id="path4800"
         inkscape:connector-curvature="0" />
      <circle
         style="opacity:1;fill:none;stroke:#4d4d4d;stroke-width:0.75;stroke-linecap:butt;stroke-linejoin:bevel;stroke-miterlimit:4;stroke-dasharray:none;stroke-opacity:1"
         id="circle4764"
         cx="203.7021"
         cy="1723.1697"
         r="126.66791"
         d="m 330.37001,1723.1697 c 0,69.9567 -56.71115,126.6679 -126.66791,126.6679 -69.95675,0 -126.667905,-56.7112 -126.667905,-126.6679 0,-69.9568 56.711155,-126.6679 126.667905,-126.6679 69.95676,0 126.66791,56.7111 126.66791,126.6679 z" />
      <circle
         r="126.66791"
         cy="1724.3807"
         cx="383.19855"
         id="circle4766"
         style="opacity:1;fill:none;stroke:#4d4d4d;stroke-width:0.75;stroke-linecap:butt;stroke-linejoin:bevel;stroke-miterlimit:4;stroke-dasharray:none;stroke-opacity:1"
         d="m 509.86646,1724.3807 c 0,69.9568 -56.71116,126.6679 -126.66791,126.6679 -69.95676,0 -126.66791,-56.7111 -126.66791,-126.6679 0,-69.9567 56.71115,-126.6679 126.66791,-126.6679 69.95675,0 126.66791,56.7112 126.66791,126.6679 z" />
      <rect
         y="947.72668"
         x="1363.4261"
         height="253.33582"
         width="253.33582"
         id="rect4768"
         style="opacity:1;fill:none;stroke:#4d4d4d;stroke-width:0.75;stroke-linecap:butt;stroke-linejoin:bevel;stroke-miterlimit:4;stroke-dasharray:none;stroke-opacity:1"
         transform="matrix(0.70710678,0.70710678,-0.70710678,0.70710678,0,0)" />
      <path
         style="opacity:1;fill:none;fill-rule:evenodd;stroke:#4d4d4d;stroke-width:0.75;stroke-linecap:butt;stroke-linejoin:bevel;stroke-opacity:1"
         d="m 294.97693,1991.0958 -34.76561,34.7656"
         id="path4790"
         inkscape:connector-curvature="0" />
      <path
         inkscape:connector-curvature="0"
         id="path4792"
         d="M 328.15836,2026.1375 291.88384,1989.863"
         style="opacity:1;fill:none;fill-rule:evenodd;stroke:#4d4d4d;stroke-width:0.75;stroke-linecap:butt;stroke-linejoin:bevel;stroke-opacity:1" />
      <circle
         r="1.9334952"
         cy="1723.5603"
         cx="204.48335"
         id="path4815"
         style="opacity:1;fill:#575652;fill-opacity:1;stroke:none;stroke-width:0.75;stroke-linecap:butt;stroke-linejoin:bevel;stroke-miterlimit:4;stroke-dasharray:none;stroke-opacity:1"
         d="m 206.41685,1723.5603 c 0,1.0678 -0.86566,1.9335 -1.9335,1.9335 -1.06784,0 -1.93349,-0.8657 -1.93349,-1.9335 0,-1.0678 0.86565,-1.9335 1.93349,-1.9335 1.06784,0 1.9335,0.8657 1.9335,1.9335 z" />
      <circle
         style="opacity:1;fill:#575652;fill-opacity:1;stroke:none;stroke-width:0.75;stroke-linecap:butt;stroke-linejoin:bevel;stroke-miterlimit:4;stroke-dasharray:none;stroke-opacity:1"
         id="circle4839"
         cx="383.31149"
         cy="1723.5603"
         r="1.9334952"
         d="m 385.24499,1723.5603 c 0,1.0678 -0.86566,1.9335 -1.9335,1.9335 -1.06784,0 -1.93349,-0.8657 -1.93349,-1.9335 0,-1.0678 0.86565,-1.9335 1.93349,-1.9335 1.06784,0 1.9335,0.8657 1.9335,1.9335 z" />
      <path
         inkscape:connector-curvature="0"
         id="path4896"
         d="m 203.69966,1596.4998 a 126.66791,126.66791 0 0 0 -126.66791,126.6679 126.66791,126.66791 0 0 0 37.82949,90.1429 l -0.053,0.055 179.13882,179.1388 175.45924,-175.4638 a 126.66791,126.66791 0 0 0 40.46095,-92.6576 126.66791,126.66791 0 0 0 -126.66791,-126.6679 126.66791,126.66791 0 0 0 -89.07678,36.6915 l -0.17504,-0.175 -0.053,0.055 a 126.66791,126.66791 0 0 0 -90.19238,-37.7846 z"
         style="opacity:1;fill:none;fill-opacity:1;stroke:#000000;stroke-width:2.87881613;stroke-linecap:butt;stroke-linejoin:bevel;stroke-miterlimit:4;stroke-dasharray:none;stroke-opacity:1" />
    </g>
  </g>
</svg>
