<?xml version="1.0" encoding="UTF-8" standalone="no"?>
<!-- Created with Inkscape (http://www.inkscape.org/) -->

<svg
   xmlns:dc="http://purl.org/dc/elements/1.1/"
   xmlns:cc="http://creativecommons.org/ns#"
   xmlns:rdf="http://www.w3.org/1999/02/22-rdf-syntax-ns#"
   xmlns:svg="http://www.w3.org/2000/svg"
   xmlns="http://www.w3.org/2000/svg"
   xmlns:xlink="http://www.w3.org/1999/xlink"
   xmlns:sodipodi="http://sodipodi.sourceforge.net/DTD/sodipodi-0.dtd"
   xmlns:inkscape="http://www.inkscape.org/namespaces/inkscape"
   width="8.27913mm"
   height="11.840832mm"
   viewBox="0 0 29.3355 41.955704"
   id="svg5612"
   version="1.1"
   inkscape:version="0.91 r13725"
   sodipodi:docname="flaske.svg"
   inkscape:export-filename="C:\github\brygg\fred\etikett\forbrødring.png"
   inkscape:export-xdpi="1200.1658"
   inkscape:export-ydpi="1200.1658">
  <defs
     id="defs5614">
    <linearGradient
       inkscape:collect="always"
       id="linearGradient4898">
      <stop
         style="stop-color:#823400;stop-opacity:1"
         offset="0"
         id="stop4900" />
      <stop
         style="stop-color:#4d1f00;stop-opacity:1"
         offset="1"
         id="stop4902" />
    </linearGradient>
    <clipPath
       clipPathUnits="userSpaceOnUse"
       id="clipPath6220">
      <path
         sodipodi:nodetypes="cscccscc"
         inkscape:connector-curvature="0"
         id="path6222"
         d="m 190.94731,-173.85122 c 0,0 162.35543,31.99255 293.61341,-5.55492 155.23193,-44.40913 328.05164,-118.98194 328.05164,-118.98194 L 876.5313,-4.9825168 936.93742,280.15277 c 0,0 -186.10718,100.64604 -295.4937,124.61585 -109.38594,23.97201 -325.50919,-1.67074 -325.50919,-1.67074 z"
         style="fill:#37483e;fill-rule:evenodd;stroke:none;stroke-width:1px;stroke-linecap:butt;stroke-linejoin:miter;stroke-opacity:1" />
    </clipPath>
    <clipPath
       clipPathUnits="userSpaceOnUse"
       id="clipPath6224">
      <path
         sodipodi:nodetypes="cscccscc"
         inkscape:connector-curvature="0"
         id="path6227"
         d="m -267.30511,-887.04345 c 0,0 343.08444,151.90581 651.84376,133.00996 365.15529,-22.3554 784.12305,-103.40584 784.12305,-103.40584 l -3.9294,687.32474 -7.6016,667.10349 c 0,0 -461.24874,132.73454 -714.93565,132.12139 -253.68674,-0.60794 -718.77941,-164.95456 -718.77941,-164.95456 z"
         style="fill:#37483e;fill-rule:evenodd;stroke:none;stroke-width:1px;stroke-linecap:butt;stroke-linejoin:miter;stroke-opacity:1" />
    </clipPath>
    <clipPath
       clipPathUnits="userSpaceOnUse"
       id="clipPath6229">
      <path
         sodipodi:nodetypes="cscccscc"
         inkscape:connector-curvature="0"
         id="path6231"
         d="m -674.63921,-1313.5596 c 0,0 341.00982,259.1412 688.173346,317.91284 410.576284,69.49731 895.996734,87.12835 895.996734,87.12835 l -182.24024,769.52287 -181.07746,745.9025 c 0,0 -545.66695282,29.36162 -826.73126,-37.01964 C -561.58355,503.51196 -1034.625,198.82883 -1034.625,198.82883 Z"
         style="fill:#37483e;fill-rule:evenodd;stroke:none;stroke-width:1px;stroke-linecap:butt;stroke-linejoin:miter;stroke-opacity:1" />
    </clipPath>
    <linearGradient
       inkscape:collect="always"
       xlink:href="#linearGradient4898"
       id="linearGradient8719"
       gradientUnits="userSpaceOnUse"
       x1="-28.894051"
       y1="170.02747"
       x2="-19.81283"
       y2="170.02747" />
  </defs>
  <sodipodi:namedview
     id="base"
     pagecolor="#ffffff"
     bordercolor="#666666"
     borderopacity="1.0"
     inkscape:pageopacity="0.0"
     inkscape:pageshadow="2"
     inkscape:zoom="0.70710678"
     inkscape:cx="44.911828"
     inkscape:cy="20.244476"
     inkscape:document-units="px"
     inkscape:current-layer="layer1"
     showgrid="false"
     inkscape:window-width="701"
     inkscape:window-height="413"
     inkscape:window-x="954"
     inkscape:window-y="365"
     inkscape:window-maximized="0"
     fit-margin-top="0"
     fit-margin-left="0"
     fit-margin-right="0"
     fit-margin-bottom="0"
     showguides="true" />
  <metadata
     id="metadata5617">
    <rdf:RDF>
      <cc:Work
         rdf:about="">
        <dc:format>image/svg+xml</dc:format>
        <dc:type
           rdf:resource="http://purl.org/dc/dcmitype/StillImage" />
        <dc:title></dc:title>
      </cc:Work>
    </rdf:RDF>
  </metadata>
  <g
     inkscape:label="Layer 1"
     inkscape:groupmode="layer"
     id="layer1"
     transform="translate(-75.105064,-178.86574)">
    <text
       xml:space="preserve"
       style="font-style:normal;font-weight:normal;font-size:40px;line-height:125%;font-family:sans-serif;letter-spacing:0px;word-spacing:0px;fill:#000000;fill-opacity:1;stroke:none;stroke-width:1px;stroke-linecap:butt;stroke-linejoin:miter;stroke-opacity:1"
       x="-19.222343"
       y="175.42867"
       id="text6265"
       sodipodi:linespacing="125%"><tspan
         sodipodi:role="line"
         id="tspan6267"
         x="-19.222343"
         y="175.42867" /></text>
    <g
       id="g8411"
       transform="matrix(1.3492829,-0.80022221,0.80022221,1.3492829,-16.084025,-51.334053)">
      <path
         style="fill:url(#linearGradient8719);fill-opacity:1;fill-rule:evenodd;stroke:none;stroke-width:1px;stroke-linecap:butt;stroke-linejoin:miter;stroke-opacity:1"
         d="m -28.394051,168.37699 c -0.06888,0.44682 -0.046,0.93179 -0.046,1.4508 0,5.3323 0.046,15.03629 0.046,15.03629 0,0 1.9967,0.99428 3.914342,1.01015 2.601327,0.0215 4.166879,-1.01015 4.166879,-1.01015 0,0 0.116916,-9.46432 0.137241,-15.1701 0.0016,-0.45694 -0.08349,-0.91784 -0.137241,-1.31699 -0.405749,-3.01288 -2.006138,-5.17844 -2.412711,-7.90246 -0.161579,-1.08257 0,-3.28368 0,-3.28368 0,0 -1.005806,0.24871 -1.461088,0.2567 -0.532112,0.009 -1.429502,-0.2567 -1.429502,-0.2567 0,0 0.184119,2.20472 0,3.28368 -0.469679,2.75238 -2.309464,4.86383 -2.77792,7.90246 z"
         id="path8413"
         inkscape:connector-curvature="0"
         sodipodi:nodetypes="sscscssscscss" />
      <ellipse
         style="opacity:1;fill:#2f1300;fill-opacity:1;stroke:none;stroke-width:0.5;stroke-miterlimit:4;stroke-dasharray:none;stroke-opacity:1"
         id="ellipse8415"
         cx="-24.173515"
         cy="157.17476"
         rx="1.4500558"
         ry="0.2734375" />
    </g>
  </g>
</svg>
