<?xml version="1.0" encoding="UTF-8" standalone="no"?>
<!-- Created with Inkscape (http://www.inkscape.org/) -->

<svg
   xmlns:dc="http://purl.org/dc/elements/1.1/"
   xmlns:cc="http://creativecommons.org/ns#"
   xmlns:rdf="http://www.w3.org/1999/02/22-rdf-syntax-ns#"
   xmlns:svg="http://www.w3.org/2000/svg"
   xmlns="http://www.w3.org/2000/svg"
   xmlns:sodipodi="http://sodipodi.sourceforge.net/DTD/sodipodi-0.dtd"
   xmlns:inkscape="http://www.inkscape.org/namespaces/inkscape"
   width="277.07812"
   height="131.91463"
   id="svg3073"
   version="1.1"
   inkscape:version="0.48.4 r9939"
   sodipodi:docname="Bygd og by bryggeri-logo - hvit.svg">
  <defs
     id="defs3075" />
  <sodipodi:namedview
     id="base"
     pagecolor="#ffffff"
     bordercolor="#666666"
     borderopacity="1.0"
     inkscape:pageopacity="0.0"
     inkscape:pageshadow="2"
     inkscape:zoom="1.979899"
     inkscape:cx="257.66394"
     inkscape:cy="-4.6151299"
     inkscape:document-units="px"
     inkscape:current-layer="g3297"
     showgrid="false"
     fit-margin-top="0"
     fit-margin-left="0"
     fit-margin-right="0"
     fit-margin-bottom="0"
     inkscape:window-width="1680"
     inkscape:window-height="987"
     inkscape:window-x="-8"
     inkscape:window-y="-8"
     inkscape:window-maximized="1" />
  <metadata
     id="metadata3078">
    <rdf:RDF>
      <cc:Work
         rdf:about="">
        <dc:format>image/svg+xml</dc:format>
        <dc:type
           rdf:resource="http://purl.org/dc/dcmitype/StillImage" />
        <dc:title></dc:title>
      </cc:Work>
    </rdf:RDF>
  </metadata>
  <g
     inkscape:label="Layer 1"
     inkscape:groupmode="layer"
     id="layer1"
     transform="translate(-132.89312,14.791591)">
    <g
       style="fill:#ffffff"
       id="g3297"
       transform="matrix(1.2063882,0,0,1.2063882,-50.892579,-874.91091)">
      <text
         sodipodi:linespacing="76.999998%"
         id="text3021"
         y="817.64984"
         x="222.25838"
         style="font-size:20.2497921px;font-style:normal;font-variant:normal;font-weight:normal;font-stretch:normal;line-height:76.99999809%;letter-spacing:-0.9674899px;word-spacing:0px;fill:#ffffff;fill-opacity:1;stroke:none;font-family:Gill Sans MT;-inkscape-font-specification:Gill Sans MT"
         xml:space="preserve"
         transform="scale(0.9945163,1.0055139)"><tspan
           id="tspan3023"
           style="font-style:normal;font-weight:normal;letter-spacing:0px;writing-mode:lr-tb;fill:#ffffff;-inkscape-font-specification:Gill Sans MT"
           y="817.64984"
           x="222.25838"
           sodipodi:role="line">BRYGGERI</tspan></text>
      <g
         style="fill:#ffffff"
         transform="matrix(2.70286,0,0,2.7327491,-539.9777,-873.90941)"
         id="g3038">
        <path
           sodipodi:nodetypes="ccccc"
           inkscape:connector-curvature="0"
           id="path3025"
           d="m 271.52015,599.45649 0,-3.76594 3.6435,-3.82982 3.25091,3.90662 -0.0531,3.74414"
           style="fill:#ffffff;stroke:none" />
        <path
           sodipodi:nodetypes="cccc"
           inkscape:connector-curvature="0"
           id="path3027"
           d="m 276.19858,593.17703 0,-0.92767 0.91503,0 0,2.12816"
           style="fill:#ffffff;stroke:none" />
      </g>
      <path
         inkscape:connector-curvature="0"
         id="path3029"
         d="m 319.25898,720.48432 0,43.52914 10.76325,0 0,-43.52914 -10.76325,0 z m 1.20127,4.22657 1.58564,0 0,1.70041 -1.58564,0 0,-1.70041 z m 7.01535,0 1.63369,0 0,1.70041 -1.63369,0 0,-1.70041 z m -4.66087,3.98373 1.58566,0 0,1.70034 -1.58566,0 0,-1.70034 z m 4.66087,0 1.63369,0 0,1.70034 -1.63369,0 0,-1.70034 z m -7.01535,3.98365 1.58564,0 0,1.70038 -1.58564,0 0,-1.70038 z m 4.70891,0 1.63372,0 0,1.70038 -1.63372,0 0,-1.70038 z m 2.30644,0 1.63369,0 0,1.70038 -1.63369,0 0,-1.70038 z m -7.01535,3.98373 1.58564,0 0,1.70035 -1.58564,0 0,-1.70035 z m 2.35448,0 1.58566,0 0,1.70035 -1.58566,0 0,-1.70035 z m 4.66087,0 1.63369,0 0,1.70035 -1.63369,0 0,-1.70035 z m -7.01535,3.98369 1.58564,0 0,1.70038 -1.58564,0 0,-1.70038 z m 2.35448,0 1.58566,0 0,1.70038 -1.58566,0 0,-1.70038 z m 2.35443,0 1.63372,0 0,1.70038 -1.63372,0 0,-1.70038 z m -4.70891,3.9837 1.58564,0 0,1.70036 -1.58564,0 0,-1.70036 z m 2.35448,0 1.58566,0 0,1.70036 -1.58566,0 0,-1.70036 z m 2.35443,0 1.63372,0 0,1.70036 -1.63372,0 0,-1.70036 z m 2.30644,0 1.63369,0 0,1.70036 -1.63369,0 0,-1.70036 z m -7.01535,3.98372 1.58564,0 0,1.70032 -1.58564,0 0,-1.70032 z m 2.35448,0 1.58566,0 0,1.70032 -1.58566,0 0,-1.70032 z m -2.35448,3.98366 1.58564,0 0,1.70037 -1.58564,0 0,-1.70037 z m 4.70891,0 1.63372,0 0,1.70037 -1.63372,0 0,-1.70037 z m 2.30644,0 1.63369,0 0,1.70037 -1.63369,0 0,-1.70037 z m -7.01535,3.98371 1.58564,0 0,1.70035 -1.58564,0 0,-1.70035 z m 2.35448,0 1.58566,0 0,1.70035 -1.58566,0 0,-1.70035 z m 2.35443,0 1.63372,0 0,1.70035 -1.63372,0 0,-1.70035 z"
         style="fill:#ffffff;fill-opacity:1;stroke:none" />
      <path
         id="path3032"
         d="m 300.72546,712.9706 0,51.27301 14.0651,0 0,-51.27301 -14.0651,0 z m 10.17165,2.90316 1.31406,0 0,2.21429 -1.31406,0 0,-2.21429 z m -3.99079,4.03492 1.31404,0 0,2.21431 -1.31404,0 0,-2.21431 z m 3.99079,0 1.31406,0 0,2.21431 -1.31406,0 0,-2.21431 z m -7.9816,4.03495 1.31406,0 0,2.21429 -1.31406,0 0,-2.21429 z m 3.99081,0 1.31404,0 0,2.21429 -1.31404,0 0,-2.21429 z m -3.99081,4.03493 1.31406,0 0,2.21425 -1.31406,0 0,-2.21425 z m 3.99081,0 1.31404,0 0,2.21425 -1.31404,0 0,-2.21425 z m 3.99079,0 1.31406,0 0,2.21425 -1.31406,0 0,-2.21425 z m -7.9816,4.03491 1.31406,0 0,2.21429 -1.31406,0 0,-2.21429 z m 3.99081,0 1.31404,0 0,2.21429 -1.31404,0 0,-2.21429 z m -3.99081,4.03492 1.31406,0 0,2.21426 -1.31406,0 0,-2.21426 z m 3.99081,0 1.31404,0 0,2.21426 -1.31404,0 0,-2.21426 z m 3.99079,0 1.31406,0 0,2.21426 -1.31406,0 0,-2.21426 z m -3.99079,4.0349 1.31404,0 0,2.21429 -1.31404,0 0,-2.21429 z m 3.99079,0 1.31406,0 0,2.21429 -1.31406,0 0,-2.21429 z m -7.9816,4.03494 1.31406,0 0,2.16507 -1.31406,0 0,-2.16507 z m 7.9816,0 1.31406,0 0,2.16507 -1.31406,0 0,-2.16507 z m -7.9816,4.03493 1.31406,0 0,2.16507 -1.31406,0 0,-2.16507 z m 3.99081,0 1.31404,0 0,2.16507 -1.31404,0 0,-2.16507 z m 3.99079,0 1.31406,0 0,2.16507 -1.31406,0 0,-2.16507 z m -7.9816,4.03489 1.31406,0 0,2.16509 -1.31406,0 0,-2.16509 z m 3.99081,0 1.31404,0 0,2.16509 -1.31404,0 0,-2.16509 z m 3.99079,0 1.31406,0 0,2.16509 -1.31406,0 0,-2.16509 z"
         style="fill:#ffffff;fill-opacity:1;stroke:none"
         inkscape:connector-curvature="0" />
      <path
         sodipodi:nodetypes="ccccc"
         inkscape:connector-curvature="0"
         id="path3034"
         d="m 216.66139,764.31624 0,-6.08372 17.90166,-6.18687 15.97276,6.31096 -6.4e-4,6.0183"
         style="fill:#ffffff;stroke:none" />
      <text
         xml:space="preserve"
         style="font-size:37.91516495px;font-style:normal;font-variant:normal;font-weight:normal;font-stretch:normal;line-height:80.00000119%;letter-spacing:-1.81150234px;word-spacing:0px;fill:#ffffff;fill-opacity:1;stroke:none;font-family:Gill Sans MT;-inkscape-font-specification:Gill Sans MT"
         x="150.70325"
         y="794.40656"
         id="text3130-1"
         sodipodi:linespacing="80.000001%"
         transform="scale(0.9945163,1.0055139)"><tspan
           sodipodi:role="line"
           x="150.70325"
           y="794.40656"
           style="font-size:37.91516495px;font-style:normal;font-variant:normal;font-weight:bold;font-stretch:normal;line-height:80.00000119%;letter-spacing:-2.17550826px;fill:#ffffff;font-family:Gill Sans MT;-inkscape-font-specification:Gill Sans MT Bold"
           id="tspan2995-7">BYGD OG BY</tspan></text>
      <path
         style="fill:none;stroke:#ffffff;stroke-width:1.03615069;stroke-linecap:butt;stroke-linejoin:miter;stroke-miterlimit:4;stroke-opacity:1;stroke-dasharray:none"
         d="m 152.34352,765.7394 228.61871,0"
         id="path4080"
         inkscape:connector-curvature="0" />
    </g>
  </g>
</svg>
