<?xml version="1.0" encoding="UTF-8" standalone="no"?>
<!-- Created with Inkscape (http://www.inkscape.org/) -->

<svg
   xmlns:dc="http://purl.org/dc/elements/1.1/"
   xmlns:cc="http://creativecommons.org/ns#"
   xmlns:rdf="http://www.w3.org/1999/02/22-rdf-syntax-ns#"
   xmlns:svg="http://www.w3.org/2000/svg"
   xmlns="http://www.w3.org/2000/svg"
   xmlns:sodipodi="http://sodipodi.sourceforge.net/DTD/sodipodi-0.dtd"
   xmlns:inkscape="http://www.inkscape.org/namespaces/inkscape"
   width="88.909279"
   height="41.866009"
   id="svg3073"
   version="1.1"
   inkscape:version="0.48.4 r9939"
   sodipodi:docname="New document 3">
  <defs
     id="defs3075" />
  <sodipodi:namedview
     id="base"
     pagecolor="#ffffff"
     bordercolor="#666666"
     borderopacity="1.0"
     inkscape:pageopacity="0.0"
     inkscape:pageshadow="2"
     inkscape:zoom="1.4"
     inkscape:cx="52.681858"
     inkscape:cy="30.363129"
     inkscape:document-units="px"
     inkscape:current-layer="layer1"
     showgrid="false"
     fit-margin-top="0"
     fit-margin-left="0"
     fit-margin-right="0"
     fit-margin-bottom="0"
     inkscape:window-width="1680"
     inkscape:window-height="987"
     inkscape:window-x="-8"
     inkscape:window-y="-8"
     inkscape:window-maximized="1" />
  <metadata
     id="metadata3078">
    <rdf:RDF>
      <cc:Work
         rdf:about="">
        <dc:format>image/svg+xml</dc:format>
        <dc:type
           rdf:resource="http://purl.org/dc/dcmitype/StillImage" />
        <dc:title></dc:title>
      </cc:Work>
    </rdf:RDF>
  </metadata>
  <g
     inkscape:label="Layer 1"
     inkscape:groupmode="layer"
     id="layer1"
     transform="translate(-132.89286,-74.286316)">
    <g
       id="g4082"
       transform="translate(-20.857137,-711.3708)">
      <g
         transform="matrix(1.2063882,0,0,1.2063882,-30.035442,-163.54011)"
         id="g3297">
        <text
           xml:space="preserve"
           style="font-size:6.46214724px;font-style:normal;font-variant:normal;font-weight:normal;font-stretch:normal;line-height:76.99999809%;letter-spacing:-0.30874699px;word-spacing:0px;fill:#000000;fill-opacity:1;stroke:none;font-family:Gill Sans MT;-inkscape-font-specification:Gill Sans MT"
           x="174.38681"
           y="821.46222"
           id="text3021"
           sodipodi:linespacing="76.999998%"><tspan
             sodipodi:role="line"
             x="174.38681"
             y="821.46222"
             style="font-style:normal;font-weight:normal;letter-spacing:0px;writing-mode:lr-tb;fill:#000000;-inkscape-font-specification:Gill Sans MT"
             id="tspan3023">BRYGGERI</tspan></text>
        <g
           id="g3038"
           transform="matrix(0.8672972,0,0,0.8672972,-69.80939,283.17833)">
          <path
             style="fill:#000000;stroke:none"
             d="m 271.52015,599.45649 0,-3.76594 3.6435,-3.82982 3.25091,3.90662 -0.0531,3.74414"
             id="path3025"
             inkscape:connector-curvature="0"
             sodipodi:nodetypes="ccccc" />
          <path
             style="fill:#000000;stroke:none"
             d="m 276.19858,593.17703 0,-0.92767 0.91503,0 0,2.12816"
             id="path3027"
             inkscape:connector-curvature="0"
             sodipodi:nodetypes="cccc" />
        </g>
        <path
           transform="matrix(0.8672972,0,0,0.8672972,-332.6428,294.07797)"
           style="fill:#000000;fill-opacity:1;stroke:none"
           d="m 620.9479,570.87211 0,15.9287 3.98217,0 0,-15.9287 -3.98217,0 z m 0.44444,1.54664 0.58666,0 0,0.62223 -0.58666,0 0,-0.62223 z m 2.59553,0 0.60443,0 0,0.62223 -0.60443,0 0,-0.62223 z m -1.72442,1.45777 0.58666,0 0,0.62221 -0.58666,0 0,-0.62221 z m 1.72442,0 0.60443,0 0,0.62221 -0.60443,0 0,-0.62221 z m -2.59553,1.45775 0.58666,0 0,0.62222 -0.58666,0 0,-0.62222 z m 1.7422,0 0.60444,0 0,0.62222 -0.60444,0 0,-0.62222 z m 0.85333,0 0.60443,0 0,0.62222 -0.60443,0 0,-0.62222 z m -2.59553,1.45777 0.58666,0 0,0.62221 -0.58666,0 0,-0.62221 z m 0.87111,0 0.58666,0 0,0.62221 -0.58666,0 0,-0.62221 z m 1.72442,0 0.60443,0 0,0.62221 -0.60443,0 0,-0.62221 z m -2.59553,1.45776 0.58666,0 0,0.62222 -0.58666,0 0,-0.62222 z m 0.87111,0 0.58666,0 0,0.62222 -0.58666,0 0,-0.62222 z m 0.87109,0 0.60444,0 0,0.62222 -0.60444,0 0,-0.62222 z m -1.7422,1.45776 0.58666,0 0,0.62222 -0.58666,0 0,-0.62222 z m 0.87111,0 0.58666,0 0,0.62222 -0.58666,0 0,-0.62222 z m 0.87109,0 0.60444,0 0,0.62222 -0.60444,0 0,-0.62222 z m 0.85333,0 0.60443,0 0,0.62222 -0.60443,0 0,-0.62222 z m -2.59553,1.45777 0.58666,0 0,0.6222 -0.58666,0 0,-0.6222 z m 0.87111,0 0.58666,0 0,0.6222 -0.58666,0 0,-0.6222 z m -0.87111,1.45775 0.58666,0 0,0.62222 -0.58666,0 0,-0.62222 z m 1.7422,0 0.60444,0 0,0.62222 -0.60444,0 0,-0.62222 z m 0.85333,0 0.60443,0 0,0.62222 -0.60443,0 0,-0.62222 z m -2.59553,1.45777 0.58666,0 0,0.62221 -0.58666,0 0,-0.62221 z m 0.87111,0 0.58666,0 0,0.62221 -0.58666,0 0,-0.62221 z m 0.87109,0 0.60444,0 0,0.62221 -0.60444,0 0,-0.62221 z"
           id="path3029"
           inkscape:connector-curvature="0" />
        <path
           transform="matrix(0.8672972,0,0,0.8672972,-332.6428,294.07797)"
           inkscape:connector-curvature="0"
           style="fill:#000000;fill-opacity:1;stroke:none"
           d="m 614.0909,568.1226 0,18.76243 5.20378,0 0,-18.76243 -5.20378,0 z m 3.76329,1.06236 0.48617,0 0,0.81028 -0.48617,0 0,-0.81028 z m -1.47651,1.47651 0.48617,0 0,0.81028 -0.48617,0 0,-0.81028 z m 1.47651,0 0.48617,0 0,0.81028 -0.48617,0 0,-0.81028 z m -2.95302,1.47651 0.48617,0 0,0.81028 -0.48617,0 0,-0.81028 z m 1.47651,0 0.48617,0 0,0.81028 -0.48617,0 0,-0.81028 z m -1.47651,1.47651 0.48617,0 0,0.81027 -0.48617,0 0,-0.81027 z m 1.47651,0 0.48617,0 0,0.81027 -0.48617,0 0,-0.81027 z m 1.47651,0 0.48617,0 0,0.81027 -0.48617,0 0,-0.81027 z m -2.95302,1.4765 0.48617,0 0,0.81028 -0.48617,0 0,-0.81028 z m 1.47651,0 0.48617,0 0,0.81028 -0.48617,0 0,-0.81028 z m -1.47651,1.47651 0.48617,0 0,0.81027 -0.48617,0 0,-0.81027 z m 1.47651,0 0.48617,0 0,0.81027 -0.48617,0 0,-0.81027 z m 1.47651,0 0.48617,0 0,0.81027 -0.48617,0 0,-0.81027 z m -1.47651,1.4765 0.48617,0 0,0.81028 -0.48617,0 0,-0.81028 z m 1.47651,0 0.48617,0 0,0.81028 -0.48617,0 0,-0.81028 z m -2.95302,1.47651 0.48617,0 0,0.79227 -0.48617,0 0,-0.79227 z m 2.95302,0 0.48617,0 0,0.79227 -0.48617,0 0,-0.79227 z m -2.95302,1.47651 0.48617,0 0,0.79227 -0.48617,0 0,-0.79227 z m 1.47651,0 0.48617,0 0,0.79227 -0.48617,0 0,-0.79227 z m 1.47651,0 0.48617,0 0,0.79227 -0.48617,0 0,-0.79227 z m -2.95302,1.4765 0.48617,0 0,0.79227 -0.48617,0 0,-0.79227 z m 1.47651,0 0.48617,0 0,0.79227 -0.48617,0 0,-0.79227 z m 1.47651,0 0.48617,0 0,0.79227 -0.48617,0 0,-0.79227 z"
           id="path3032" />
        <path
           transform="matrix(0.8672972,0,0,0.8672972,-332.6428,294.07797)"
           style="fill:#000000;stroke:none"
           d="m 582.989,586.91161 0,-2.22623 6.62323,-2.26397 5.90958,2.30938 -2.4e-4,2.20229"
           id="path3034"
           inkscape:connector-curvature="0"
           sodipodi:nodetypes="ccccc" />
        <text
           sodipodi:linespacing="80.000001%"
           id="text3130-1"
           y="814.0448"
           x="151.55202"
           style="font-size:12.0995512px;font-style:normal;font-variant:normal;font-weight:normal;font-stretch:normal;line-height:80.00000119%;letter-spacing:-0.57808965px;word-spacing:0px;fill:#000000;fill-opacity:1;stroke:none;font-family:Gill Sans MT;-inkscape-font-specification:Gill Sans MT"
           xml:space="preserve"><tspan
             id="tspan2995-7"
             style="font-size:12.0995512px;font-style:normal;font-variant:normal;font-weight:bold;font-stretch:normal;line-height:80.00000119%;letter-spacing:-0.69425178px;fill:#000000;font-family:Gill Sans MT;-inkscape-font-specification:Gill Sans MT Bold"
             y="814.0448"
             x="151.55202"
             sodipodi:role="line">BYGD OG BY</tspan></text>
        <path
           transform="matrix(0.82892057,0,0,0.82892057,24.896996,772.91574)"
           inkscape:connector-curvature="0"
           id="path4080"
           d="m 153.75,36.964575 88.49999,0"
           style="fill:none;stroke:#000000;stroke-width:1.25;stroke-linecap:butt;stroke-linejoin:miter;stroke-miterlimit:4;stroke-opacity:1;stroke-dasharray:none" />
      </g>
    </g>
  </g>
</svg>
