<?xml version="1.0" encoding="UTF-8" standalone="no"?>
<!-- Created with Inkscape (http://www.inkscape.org/) -->

<svg
   xmlns:dc="http://purl.org/dc/elements/1.1/"
   xmlns:cc="http://creativecommons.org/ns#"
   xmlns:rdf="http://www.w3.org/1999/02/22-rdf-syntax-ns#"
   xmlns:svg="http://www.w3.org/2000/svg"
   xmlns="http://www.w3.org/2000/svg"
   xmlns:xlink="http://www.w3.org/1999/xlink"
   xmlns:sodipodi="http://sodipodi.sourceforge.net/DTD/sodipodi-0.dtd"
   xmlns:inkscape="http://www.inkscape.org/namespaces/inkscape"
   width="154.10214mm"
   height="80.1511mm"
   viewBox="0 0 546.03125 283.99996"
   id="svg5970"
   version="1.1"
   inkscape:version="0.91 r13725"
   sodipodi:docname="fred.svg">
  <defs
     id="defs5972">
    <linearGradient
       id="linearGradient5763"
       inkscape:collect="always">
      <stop
         id="stop5765"
         offset="0"
         style="stop-color:#ececec;stop-opacity:1" />
      <stop
         id="stop5767"
         offset="1"
         style="stop-color:#d4d4d4;stop-opacity:1" />
    </linearGradient>
    <linearGradient
       inkscape:collect="always"
       xlink:href="#linearGradient5847"
       id="linearGradient5853"
       x1="206.49757"
       y1="897.62073"
       x2="234.9184"
       y2="897.62073"
       gradientUnits="userSpaceOnUse" />
    <linearGradient
       inkscape:collect="always"
       id="linearGradient5847">
      <stop
         style="stop-color:#008000;stop-opacity:1;"
         offset="0"
         id="stop5849" />
      <stop
         style="stop-color:#48a848;stop-opacity:1"
         offset="1"
         id="stop5851" />
    </linearGradient>
    <linearGradient
       inkscape:collect="always"
       xlink:href="#linearGradient5841"
       id="linearGradient5833"
       x1="159.02216"
       y1="918.61316"
       x2="209.26364"
       y2="918.61316"
       gradientUnits="userSpaceOnUse" />
    <linearGradient
       id="linearGradient5841"
       inkscape:collect="always">
      <stop
         id="stop5843"
         offset="0"
         style="stop-color:#ffffff;stop-opacity:1" />
      <stop
         id="stop5845"
         offset="1"
         style="stop-color:#f5f5f5;stop-opacity:1" />
    </linearGradient>
    <linearGradient
       inkscape:collect="always"
       xlink:href="#linearGradient5819"
       id="linearGradient5825"
       x1="190.93672"
       y1="910.89001"
       x2="186.52966"
       y2="914.51099"
       gradientUnits="userSpaceOnUse" />
    <linearGradient
       inkscape:collect="always"
       id="linearGradient5819">
      <stop
         style="stop-color:#ffffff;stop-opacity:1"
         offset="0"
         id="stop5821" />
      <stop
         style="stop-color:#e4e4e4;stop-opacity:1"
         offset="1"
         id="stop5823" />
    </linearGradient>
    <linearGradient
       inkscape:collect="always"
       xlink:href="#linearGradient5763"
       id="linearGradient5761"
       x1="131.33672"
       y1="926.24982"
       x2="225.07257"
       y2="926.24982"
       gradientUnits="userSpaceOnUse"
       gradientTransform="matrix(0.56227608,0,0,0.56227608,179.0823,-74.210762)" />
    <radialGradient
       inkscape:collect="always"
       xlink:href="#linearGradient5763"
       id="radialGradient5747"
       cx="156.58321"
       cy="906.57501"
       fx="156.58321"
       fy="906.57501"
       r="77.943893"
       gradientTransform="matrix(1.109053,-0.11546808,0.05022932,0.48244483,365.21701,48.44377)"
       gradientUnits="userSpaceOnUse" />
    <linearGradient
       inkscape:collect="always"
       xlink:href="#linearGradient8101"
       id="linearGradient8107"
       x1="182.03125"
       y1="857.80994"
       x2="182.03125"
       y2="1043.3608"
       gradientUnits="userSpaceOnUse"
       gradientTransform="matrix(1.4136941,0,0,0.99937014,181.98436,-377.00986)" />
    <linearGradient
       inkscape:collect="always"
       id="linearGradient8101">
      <stop
         style="stop-color:#05afdc;stop-opacity:1"
         offset="0"
         id="stop8103" />
      <stop
         style="stop-color:#ffe8d8;stop-opacity:1"
         offset="1"
         id="stop8105" />
    </linearGradient>
  </defs>
  <sodipodi:namedview
     id="base"
     pagecolor="#ffffff"
     bordercolor="#666666"
     borderopacity="1.0"
     inkscape:pageopacity="0.0"
     inkscape:pageshadow="2"
     inkscape:zoom="0.98994949"
     inkscape:cx="69.492293"
     inkscape:cy="400.76807"
     inkscape:document-units="px"
     inkscape:current-layer="layer1"
     showgrid="false"
     fit-margin-top="0"
     fit-margin-left="0"
     fit-margin-right="0"
     fit-margin-bottom="0"
     inkscape:window-width="1920"
     inkscape:window-height="1017"
     inkscape:window-x="-8"
     inkscape:window-y="-8"
     inkscape:window-maximized="1"
     inkscape:snap-page="true"
     inkscape:snap-bbox="true" />
  <metadata
     id="metadata5975">
    <rdf:RDF>
      <cc:Work
         rdf:about="">
        <dc:format>image/svg+xml</dc:format>
        <dc:type
           rdf:resource="http://purl.org/dc/dcmitype/StillImage" />
        <dc:title />
      </cc:Work>
    </rdf:RDF>
  </metadata>
  <g
     inkscape:label="Layer 1"
     inkscape:groupmode="layer"
     id="layer1"
     transform="translate(-181.98437,-390.36223)">
    <rect
       inkscape:export-ydpi="600"
       inkscape:export-xdpi="600"
       inkscape:export-filename="C:\Users\johankso\Documents\Brygg\hoppla\etikett\etikett_forslag_johan.png"
       style="display:inline;opacity:1;fill:url(#linearGradient8107);fill-opacity:1;stroke:none"
       id="rect8038"
       width="546.03125"
       height="283.99997"
       x="181.98438"
       y="390.36221" />
    <path
       style="display:inline;fill:url(#radialGradient5747);fill-opacity:1;fill-rule:evenodd;stroke:none;stroke-width:1px;stroke-linecap:butt;stroke-linejoin:miter;stroke-opacity:1"
       d="m 530.32952,487.72243 c 39.71892,0.4506 86.3672,1.0445 120.00001,0 10.19857,-0.3167 27.15368,-9.8774 19,-24 -8.15368,-14.12263 -21,-3.00003 -21,-3.00003 0,0 0,-14.25 -14.25,-14.25 -14.25,0 -12.875,16.62503 -12.875,12.625 0,-4 2.66009,-20.8435 -12.1758,-23.2786 -11.52211,-1.8912 -18.05145,18.0514 -18.05145,18.0514 0,0 1.79528,-24.12101 -13.92624,-24.12101 -15.72152,0 -17.59736,17.59741 -17.59736,17.59741 0,0 -12.22608,-17.61441 -21.36755,-12.3366 -9.14148,5.2779 0,18.7124 0,18.7124 0,0 -15.95998,-10.04 -21.75661,0 -5.79664,10.04013 8.8032,15.24763 8.8032,15.24763 0,0 -8.7778,1.8032 -8.7778,8.7778 0,6.9746 8.2519,9.9097 13.9746,9.9746 z"
       id="path5733"
       inkscape:connector-curvature="0"
       sodipodi:nodetypes="ssscssscscscscss" />
    <path
       style="display:inline;fill:url(#linearGradient5761);fill-opacity:1;fill-rule:evenodd;stroke:none;stroke-width:1px;stroke-linecap:butt;stroke-linejoin:miter;stroke-opacity:1"
       d="m 260.33119,459.31111 39.9216,0 c 0,0 3.6943,-0.2956 4.91991,-4.2058 1.22561,-3.9101 -7.0765,-5.7348 -7.0765,-5.7348 0,0 2.57948,-8.02041 -4.88942,-13.24671 -5.84493,-4.0899 -14.99583,3.7042 -15.35649,3.8823 1.38249,-6.9236 -4.55736,-6.6685 -7.4123,-5.8066 -2.85495,0.8618 -3.38423,7.4968 -3.38423,7.4968 0,0 -6.66217,-2.9449 -8.55411,-0.7952 -1.85415,2.10681 1.83792,8.21641 1.83792,8.21641 -1.16577,0.7591 -6.7019,0.4211 -7.12664,5.0751 0,4.1572 7.12026,5.1185 7.12026,5.1185 z"
       id="path5753"
       inkscape:connector-curvature="0"
       sodipodi:nodetypes="ccscsczcaccc" />
    <rect
       style="display:inline;fill:#ffffff;fill-opacity:0;stroke:none"
       id="rect3019"
       width="565.63525"
       height="283.96964"
       x="182.52528"
       y="390.36221"
       inkscape:export-filename="C:\Users\johankso\Documents\Brygg\hoppla\etikett\etikett_forslag_johan.png"
       inkscape:export-xdpi="600"
       inkscape:export-ydpi="600" />
    <g
       style="display:inline"
       id="g5775"
       transform="matrix(0.77242401,0,0,0.77242401,204.49389,-186.83676)">
      <path
         sodipodi:nodetypes="csssscsscccsccc"
         inkscape:connector-curvature="0"
         id="path5765"
         d="m 182.49942,965.36085 -0.14852,2.90115 c -0.0185,0.36224 -0.49372,0.65982 -0.63327,0.99632 -0.75868,1.82928 -1.30148,3.77849 -1.94255,5.68649 -0.14662,0.43636 0.60815,0.067 0.75911,-0.47107 l 0.91654,-3.26666 c 0.0159,0.86454 -0.21738,2.66795 0.15789,3.4223 0.1768,0.35538 0.49951,0.38627 0.43505,-0.2272 -0.10452,-0.99488 -0.12253,-2.08348 -0.23896,-3.0767 l 0.096,-1.16769 0.37184,-1.09549 c 0,0 0.55321,-0.2604 0.63538,-0.5458 0.0911,-0.31655 -0.25516,-0.95608 -0.25516,-0.95608 l 0.58123,-2.5474 z"
         style="fill:#a05a2c;fill-rule:evenodd;stroke:none;stroke-width:1px;stroke-linecap:butt;stroke-linejoin:miter;stroke-opacity:1" />
      <path
         style="fill:#a05a2c;fill-rule:evenodd;stroke:none;stroke-width:1px;stroke-linecap:butt;stroke-linejoin:miter;stroke-opacity:1"
         d="m 178.2076,965.64981 0.94368,1.99394 c 0,0 0.32611,0.38512 0.377,0.63251 0.049,0.23802 -0.38414,0.7262 -0.38414,0.7262 l 0.73851,4.95029 c 0.0686,0.46013 -0.49992,-0.15153 -0.54386,-0.71356 l -0.13629,-1.74315 c -0.0159,0.86454 -0.25078,2.25778 -0.62605,3.01213 -0.1768,0.35537 -0.63405,0.35596 -0.56958,-0.25752 0.10451,-0.99487 0.59067,-1.82485 0.7071,-2.81806 l 0.0385,-0.98583 c 0.0258,-0.66086 -0.0913,-1.25121 -0.006,-2.03377 l -1.27365,-3.11101 z"
         id="path5773"
         inkscape:connector-curvature="0"
         sodipodi:nodetypes="ccscsscsscsccc" />
      <g
         transform="translate(-6.223611,28.495689)"
         id="g5759">
        <path
           style="fill:url(#linearGradient5853);fill-opacity:1"
           d="m 208.67289,909.08758 c 0.0214,-0.9447 0.35237,-3.46655 0.73552,-5.60412 0.59806,-3.33666 0.39853,-4.1642 -1.4104,-5.84948 -2.22502,-2.07291 -1.91865,-3.53587 0.54267,-2.59137 2.34187,0.89866 3.46762,5.03578 2.41128,8.8615 -0.51031,1.84822 -0.80498,3.48328 -0.6548,3.63346 0.15017,0.15017 1.67215,-1.17048 3.38218,-2.93478 2.87761,-2.96893 2.99501,-3.32196 1.57655,-4.74042 -1.65203,-1.65203 -2.08708,-6.57032 -0.65924,-7.45278 1.25771,-0.77731 3.81414,3.24573 3.81414,6.00229 l 0,2.34349 2.08344,-2.08345 2.08345,-2.08344 -2.08345,-1.4593 c -2.37184,-1.6613 -2.77631,-5.67206 -0.83916,-8.32127 1.15021,-1.573 1.36851,-1.43984 2.88762,1.76144 0.90384,1.90469 1.39757,4.17184 1.09718,5.03809 -0.4196,1.20998 -0.21974,1.15325 0.86237,-0.2448 2.22539,-2.87515 1.8149,-9.19035 -0.75426,-11.60396 -1.65802,-1.55762 -2.42022,-1.77446 -3.26562,-0.92904 -1.39756,1.39756 -2.48672,0.38067 -1.72325,-1.6089 1.45599,-3.79428 8.94972,2.2284 9.13543,7.34211 0.0598,1.64703 0.29036,2.3151 0.51233,1.4846 0.42297,-1.5825 4.88334,-4.07933 5.74611,-3.21656 1.21319,1.21319 -1.73995,5.19531 -3.85286,5.19531 -1.43374,0 -2.57873,0.80189 -3.25064,2.27658 -1.00349,2.20243 -0.93549,2.26006 2.08788,1.76944 1.71884,-0.27893 3.8704,-0.0901 4.78125,0.41965 1.5006,0.83978 1.41149,1.08707 -0.94901,2.63373 -2.42184,1.58686 -2.78983,1.60091 -5.23105,0.19985 -2.46072,-1.41226 -2.72794,-1.39438 -4.24715,0.28433 -1.55635,1.71975 -1.52406,1.79142 0.80681,1.79142 1.33541,0 3.61074,0.44967 5.05629,0.99927 l 2.62826,0.99926 -2.33285,1.79775 c -3.53995,2.72794 -5.35088,3.03487 -8.53473,1.44656 -2.99941,-1.49631 -5.03371,-1.05302 -7.21189,1.57152 -0.87894,1.05906 -0.56922,1.21793 1.7195,0.88202 3.67248,-0.53901 7.4755,1.96116 7.4755,4.91452 0,2.28601 -2.17402,5.2016 -3.8786,5.2016 -2.05871,0 -4.5589,-2.04432 -4.5589,-3.72766 0,-2.6121 1.6223,-3.18375 2.79845,-0.9861 1.23753,2.31236 2.42195,2.43286 3.22945,0.32857 0.80605,-2.10055 -1.52362,-4.28669 -4.56812,-4.28669 -1.72012,0 -6.13966,0.87149 -7.37564,4.63282 -2.6176,5.06126 -0.14937,-2.07743 -0.072,-4.08706 z"
           id="path5751"
           inkscape:connector-curvature="0"
           sodipodi:nodetypes="cssssssssscccssscsssssssssssssssscsssssssssscc" />
        <path
           style="opacity:1;fill:url(#linearGradient5833);fill-opacity:1;stroke:none;stroke-width:0.5;stroke-miterlimit:4;stroke-dasharray:none;stroke-opacity:1"
           d="m 178.2015,893.63344 -0.27843,0.91901 c -0.20028,0.66117 -0.25554,1.23409 -0.19782,2.04079 0.0704,0.98353 0.16062,1.24147 0.73608,2.09847 0.3609,0.53748 0.65608,1.15409 0.65608,1.36984 0,0.37815 -0.0285,0.38868 -0.79375,0.29269 -2.65104,-0.33256 -2.38124,-0.34825 -2.38124,0.13643 0,0.62466 -0.11363,2.56612 1.33428,3.16375 2.98022,1.23009 4.27081,2.19669 5.58413,4.18329 0.84778,1.28239 1.76271,3.18307 2.3738,4.93115 0.72959,2.08704 1.49245,3.44337 2.44202,4.34143 0.86402,0.81715 6.31708,3.42861 7.34593,3.68837 0.80809,0.20402 3.37197,0.0994 3.85092,-0.15689 l 0.38819,-0.20774 -3.39932,-3.25793 c -0.8983,-0.6302 -1.94449,-1.8031 -2.50836,-2.81222 -0.33479,-0.59917 -0.86602,-2.04935 -1.30101,-3.55202 -0.40434,-1.39682 -0.94377,-3.03987 -1.19868,-3.65124 -0.70372,-1.68781 -2.26919,-3.63928 -4.5535,-5.67591 -4.27999,-3.81593 -5.34048,-4.81467 -6.696,-6.30657 z m -9.12995,4.55722 c -0.1942,0 -0.59006,1.03708 -0.58911,1.54285 0.002,0.99764 0.33881,1.64263 1.51494,2.90027 1.12824,1.20642 1.41907,1.78287 0.98412,1.94902 -0.10914,0.0417 -0.64057,0.004 -1.18131,-0.0831 -1.14137,-0.18417 -1.47774,-0.10043 -1.47774,0.36897 0,0.6339 0.49005,1.37158 1.76671,2.66029 1.59719,1.61228 1.61276,1.87182 0.111,1.81197 -1.21062,-0.0482 -1.34834,0.09 -1.08086,1.08334 0.21253,0.78927 0.775,1.44683 1.88391,2.20203 1.76984,1.20532 1.84647,1.63113 0.34726,1.92608 -0.52708,0.1037 -1.08461,0.28127 -1.23899,0.39501 -0.26731,0.19697 -0.26603,0.23482 0.0316,0.79189 0.39655,0.74213 1.57083,1.77189 2.91516,2.55673 1.14318,0.66741 1.93166,1.27642 1.93166,1.49138 0,0.18371 -1.05491,0.4672 -1.74624,0.46943 -0.9255,0.003 -1.74625,0.29576 -1.74625,0.62259 0,0.66702 1.93568,2.02105 3.73061,2.61006 1.04023,0.34136 1.82562,0.82979 1.82562,1.13481 0,0.34665 -0.52009,0.50233 -2.12017,0.63562 -1.39626,0.11631 -1.39625,0.1167 -1.2948,0.5209 0.26196,1.04372 1.33467,1.84486 2.9226,2.1828 1.95225,0.41548 2.23861,0.53148 2.23861,0.90723 0,0.18405 -0.15167,0.49689 -0.33734,0.69453 -0.20787,0.22127 -0.29817,0.46173 -0.23502,0.62632 0.0893,0.2326 0.30292,0.25766 1.64889,0.19285 1.35104,-0.0651 1.70989,-0.14801 2.83516,-0.65608 0.70846,-0.31988 1.36842,-0.58167 1.46657,-0.58167 0.25983,0 0.21791,0.50769 -0.0763,0.92769 -0.36651,0.52332 -0.19224,0.57322 0.66911,0.19224 1.13593,-0.50248 1.76617,-1.05049 2.30372,-2.00297 0.87269,-1.54633 1.73576,-1.99053 2.57844,-1.32767 0.62771,0.49376 0.51891,0.65195 -0.40804,0.59469 l -0.82599,-0.0508 -0.60957,1.10877 c -0.33522,0.60967 -0.76735,1.27732 -0.95994,1.48393 -0.80369,0.86218 -3.33765,1.71558 -3.84471,1.29478 -0.18005,-0.1494 -1.05018,-0.2261 -3.06151,-0.2703 l -2.81036,-0.062 -1.34937,1.2173 c -2.27765,2.0551 -3.89005,3.0015 -6.37726,3.7418 -1.04605,0.3114 -1.61848,0.3525 -5.68769,0.413 -2.4884,0.037 -4.58353,0.125 -4.65644,0.1953 -0.18434,0.1778 0.30295,1.0678 0.73111,1.3351 0.19464,0.1216 0.77583,0.2611 1.2917,0.3101 0.53044,0.05 1.04535,0.1964 1.18504,0.3361 0.22351,0.2235 0.22175,0.2719 -0.0161,0.5097 -0.14459,0.1446 -0.74332,0.3415 -1.33077,0.4378 -0.58744,0.096 -1.09761,0.2636 -1.13357,0.3715 -0.036,0.1079 0.15715,0.4188 0.42912,0.6908 0.39579,0.3956 0.58066,0.475 0.92583,0.3956 0.95089,-0.2187 2.21584,-0.2892 2.31489,-0.129 0.20741,0.3356 -0.13048,0.7185 -0.95559,1.0834 -0.89312,0.3949 -0.99518,0.5364 -0.6164,0.8508 0.31511,0.2615 1.04984,0.01 2.05816,-0.7088 0.43011,-0.3059 0.87659,-0.5563 0.99219,-0.5563 0.3399,0 0.24091,0.7036 -0.18728,1.3345 -0.21828,0.3217 -0.39687,0.6169 -0.39687,0.6567 0,0.1795 0.6041,0.03 2.03149,-0.5029 1.99933,-0.7466 3.22194,-1.3655 6.22348,-3.1489 1.35333,-0.8042 2.96067,-1.7182 3.57186,-2.0315 l 1.11124,-0.5699 6.82623,-0.1581 c 7.67031,-0.178 8.07871,-0.2321 10.88363,-1.4486 3.04289,-1.3198 4.55682,-2.4891 6.37912,-4.9262 1.60833,-2.15092 1.84855,-2.82334 2.65657,-7.42155 0.95632,-5.44206 2.155,-7.81035 4.538,-8.9681 l 0.68833,-0.33424 -0.85886,-0.34913 c -0.47234,-0.19197 -1.28765,-0.69612 -1.81197,-1.12054 -1.16192,-0.94053 -1.69591,-1.14585 -3.01748,-1.16148 -1.92386,-0.0227 -2.65966,0.59464 -4.14609,3.48009 -1.48558,2.88378 -2.84983,3.96729 -5.15129,4.09151 -2.36031,0.12741 -4.45678,-0.71061 -6.26316,-2.5034 -1.18488,-1.17596 -1.80465,-2.25589 -2.59704,-4.52498 -1.07568,-3.08029 -1.95143,-4.61371 -3.49559,-6.11929 -1.18522,-1.1556 -2.20487,-1.75653 -4.71721,-2.77997 -2.57911,-1.05065 -3.87286,-1.75103 -5.36028,-2.90214 -1.48525,-1.14944 -2.60742,-1.93042 -2.77315,-1.93042 z m 35.76326,14.20807 c 0.29355,0 0.4106,0.0952 0.44897,0.36587 0.0285,0.20126 -0.0336,0.46915 -0.13829,0.59531 -0.36572,0.44066 -0.83208,0.13229 -0.75964,-0.5023 0.0422,-0.36981 0.12921,-0.45888 0.44896,-0.45888 z"
           id="path5754"
           inkscape:connector-curvature="0"
           sodipodi:nodetypes="cccsssssssssccccsssccccsccsscsssccsscssssssssccssccsscccscccccscccccccccccccscsccccccsscccscsssssssccscccs" />
        <path
           style="display:inline;opacity:1;fill:url(#linearGradient5825);fill-opacity:1;stroke:none;stroke-width:0.5;stroke-miterlimit:4;stroke-dasharray:none;stroke-opacity:1"
           d="m 178.07159,893.34944 -0.27718,0.91729 c -0.20028,0.66117 -0.2549,1.23361 -0.19718,2.04031 0.0704,0.98353 0.15893,1.24333 0.73439,2.10034 0.3609,0.53748 0.65725,1.15303 0.65725,1.36879 0,0.37815 -0.0292,0.38745 -0.79441,0.29146 -2.65104,-0.33256 -2.38037,-0.34751 -2.38037,0.13716 0,0.62467 0.92103,1.40269 2.36894,2.00032 2.98022,1.23009 4.27041,2.19691 5.58374,4.18352 0.84777,1.28238 1.76071,3.18411 2.37179,4.9322 0.7296,2.08703 1.49367,3.44261 2.44324,4.34068 0.45683,0.43205 1.89702,1.67416 3.31481,2.80329 0.006,-0.13965 0.0339,0.0804 -0.0972,0.0514 0,0 4.45991,0.19398 5.10652,0 0.44016,-0.13206 0.15266,-0.46277 -0.10859,-0.70582 -0.0204,0.0143 -0.0423,0.0261 -0.0629,0.04 l -1.00016,-0.96015 c -0.8983,-0.6302 -1.94509,-1.80274 -2.50896,-2.81186 -0.33479,-0.59918 -0.86807,-2.04932 -1.30306,-3.552 -0.40435,-1.39682 -0.94243,-3.04063 -1.19733,-3.65199 -0.70373,-1.68782 -2.26784,-3.63855 -4.55214,-5.67518 -4.28,-3.81593 -5.34268,-4.8148 -6.6982,-6.30671 l -1.40307,-1.54309 z"
           id="path5754-8"
           inkscape:connector-curvature="0"
           sodipodi:nodetypes="cccsssssscscccccccsssccc" />
      </g>
    </g>
  </g>
</svg>
