<?xml version="1.0" encoding="UTF-8" standalone="no"?>
<!-- Created with Inkscape (http://www.inkscape.org/) -->

<svg
   xmlns:dc="http://purl.org/dc/elements/1.1/"
   xmlns:cc="http://creativecommons.org/ns#"
   xmlns:rdf="http://www.w3.org/1999/02/22-rdf-syntax-ns#"
   xmlns:svg="http://www.w3.org/2000/svg"
   xmlns="http://www.w3.org/2000/svg"
   xmlns:sodipodi="http://sodipodi.sourceforge.net/DTD/sodipodi-0.dtd"
   xmlns:inkscape="http://www.inkscape.org/namespaces/inkscape"
   width="396.72144"
   height="65.836838"
   id="svg3080"
   version="1.1"
   inkscape:version="0.91 r13725"
   sodipodi:docname="jolebrygg.svg">
  <defs
     id="defs3082" />
  <sodipodi:namedview
     id="base"
     pagecolor="#ffffff"
     bordercolor="#666666"
     borderopacity="1.0"
     inkscape:pageopacity="0.0"
     inkscape:pageshadow="2"
     inkscape:zoom="0.98994949"
     inkscape:cx="-87.033053"
     inkscape:cy="149.16516"
     inkscape:document-units="px"
     inkscape:current-layer="layer1"
     showgrid="false"
     fit-margin-top="0"
     fit-margin-left="0"
     fit-margin-right="0"
     fit-margin-bottom="0"
     inkscape:window-width="1536"
     inkscape:window-height="801"
     inkscape:window-x="-8"
     inkscape:window-y="-8"
     inkscape:window-maximized="1" />
  <metadata
     id="metadata3085">
    <rdf:RDF>
      <cc:Work
         rdf:about="">
        <dc:format>image/svg+xml</dc:format>
        <dc:type
           rdf:resource="http://purl.org/dc/dcmitype/StillImage" />
        <dc:title />
      </cc:Work>
    </rdf:RDF>
  </metadata>
  <g
     inkscape:label="Layer 1"
     inkscape:groupmode="layer"
     id="layer1"
     transform="translate(-176.63928,-499.44376)">
    <rect
       style="fill:#9b0000;fill-opacity:1;stroke:none"
       id="rect3786"
       width="396.72144"
       height="65.836838"
       x="176.63928"
       y="499.44376" />
    <g
       style="font-style:normal;font-variant:normal;font-weight:normal;font-stretch:normal;font-size:14.2488451px;line-height:125%;font-family:'Champagne &amp; Limousines';-inkscape-font-specification:'Champagne &amp; Limousines';letter-spacing:0px;word-spacing:0px;fill:#000000;fill-opacity:1;stroke:#ffffff;stroke-width:2;stroke-opacity:1"
       id="text3788">
      <path
         d="m 194.98624,549.28201 q -0.89768,-0.94755 -1.34652,-2.14445 -0.39897,-1.19691 -0.54858,-2.2442 -0.14961,-1.09716 -0.14961,-1.84522 0.0499,-0.74807 0.0499,-0.84781 l 1.04729,0 q 0,0 0,0.69819 0,0.6982 0.0997,1.69562 0.14961,0.99742 0.49871,2.09458 0.39897,1.09716 1.14703,1.89509 1.546,1.69562 4.43852,1.69562 2.94238,0 4.58813,-1.74549 0.74806,-0.79793 1.09716,-1.74548 0.39896,-0.94755 0.54858,-1.74548 0.14961,-0.84781 0.14961,-1.39639 0,-0.59845 0,-0.59845 l 0,-28.47632 0.54858,0 0.49871,0 0,28.42645 q 0,0.14961 0,0.8478 0,0.64832 -0.19948,1.546 -0.19949,0.89768 -0.64833,1.94497 -0.39896,1.04729 -1.1969,1.94497 -1.84522,2.04471 -5.38606,2.04471 -3.34136,0 -5.23645,-2.04471 z"
         style="font-style:normal;font-variant:normal;font-weight:100;font-stretch:condensed;font-size:49.87095642px;font-family:'Tre Ingeniorer og En Sykepleier';-inkscape-font-specification:'Tre Ingeniorer og En Sykepleier Thin Condensed';fill:#ffffff;stroke:#ffffff;stroke-width:1;stroke-linejoin:bevel;stroke-opacity:1"
         id="path4137" />
      <path
         d="m 232.29672,543.24762 q 0,0.14961 0,0.79794 0,0.64832 -0.19948,1.59587 -0.19948,0.89767 -0.64832,1.94496 -0.39897,1.04729 -1.24678,1.94497 -0.99741,0.99742 -2.84264,1.546 -1.79535,0.49871 -3.49097,0.49871 -1.69561,0 -3.49096,-0.49871 -1.79536,-0.54858 -2.74291,-1.546 -0.8478,-0.89768 -1.29664,-1.99484 -0.39897,-1.09716 -0.54858,-2.04471 -0.14961,-0.99742 -0.14961,-1.69561 0,-0.69819 0,-0.8478 l 0,-20.4471 q 0,-1.99484 0.54858,-3.54083 0.59845,-1.59588 1.84522,-2.69304 0.49871,-0.44884 1.1969,-0.79793 0.74807,-0.3491 1.546,-0.54858 0.79794,-0.24936 1.59587,-0.3491 0.79794,-0.14961 1.49613,-0.14961 0.64833,0 1.44626,0.0997 0.84781,0.0997 1.64574,0.3491 0.84781,0.19948 1.546,0.54858 0.74807,0.29922 1.24678,0.74806 2.54341,2.24419 2.54341,6.33361 l 0,20.74632 z m -1.04729,-20.74632 q 0,-1.74548 -0.49871,-2.99225 -0.44883,-1.24678 -1.1969,-2.09458 -0.49871,-0.49871 -1.24677,-0.84781 -0.6982,-0.39897 -1.49613,-0.64832 -0.74806,-0.24936 -1.546,-0.3491 -0.79794,-0.0997 -1.39639,-0.0997 -1.14703,0 -2.44367,0.29922 -1.24678,0.24936 -2.29407,1.04729 -1.04729,0.74807 -1.74548,2.14446 -0.64832,1.34651 -0.64832,3.54083 l 0,20.49697 q 0,0 -0.0499,0.64832 0,0.59845 0.14961,1.49613 0.14961,0.89767 0.49871,1.89509 0.34909,0.99742 1.09716,1.79536 0.79793,0.8478 2.3938,1.29664 1.59588,0.39897 3.04213,0.39897 0.74807,0 1.546,-0.0997 0.79794,-0.0997 1.546,-0.29923 0.79794,-0.24935 1.44626,-0.54858 0.64832,-0.34909 1.04729,-0.79793 0.74806,-0.79794 1.09716,-1.74549 0.3491,-0.94754 0.49871,-1.74548 0.14961,-0.84781 0.14961,-1.39639 0,-0.59845 0,-0.59845 l 0.0499,-20.79619 z"
         style="font-style:normal;font-variant:normal;font-weight:100;font-stretch:condensed;font-size:49.87095642px;font-family:'Tre Ingeniorer og En Sykepleier';-inkscape-font-specification:'Tre Ingeniorer og En Sykepleier Thin Condensed';fill:#ffffff;stroke:#ffffff;stroke-width:1;stroke-linejoin:bevel;stroke-opacity:1"
         id="path4139" />
      <path
         d="m 241.03038,551.07736 0,-0.49871 0,-35.75747 0.54858,0 0.54858,0 0,35.30863 13.36541,0 0,0.44884 0,0.49871 -14.46257,0 z"
         style="font-style:normal;font-variant:normal;font-weight:100;font-stretch:condensed;font-size:49.87095642px;font-family:'Tre Ingeniorer og En Sykepleier';-inkscape-font-specification:'Tre Ingeniorer og En Sykepleier Thin Condensed';fill:#ffffff;stroke:#ffffff;stroke-width:1;stroke-linejoin:bevel;stroke-opacity:1"
         id="path4141" />
      <path
         d="m 280.06063,550.12981 0,0.44884 0,0.49871 -14.06361,0 0,-0.49871 0,-35.20889 0,-0.54858 13.86412,0 0,0.54858 0,0.39896 -12.81683,0 0,18.85123 10.02406,0 0,0.49871 0,0.44883 -10.02406,0 0,14.56232 13.01632,0 z"
         style="font-style:normal;font-variant:normal;font-weight:100;font-stretch:condensed;font-size:49.87095642px;font-family:'Tre Ingeniorer og En Sykepleier';-inkscape-font-specification:'Tre Ingeniorer og En Sykepleier Thin Condensed';fill:#ffffff;stroke:#ffffff;stroke-width:1;stroke-linejoin:bevel;stroke-opacity:1"
         id="path4143" />
      <path
         d="m 300.835,517.41447 q 1.84523,2.7429 1.79536,6.13412 0,1.59587 -0.39897,2.99226 -0.3491,1.34652 -0.99742,2.44368 -0.59845,1.04729 -1.39639,1.74548 -0.79793,0.69819 -1.69561,0.99742 1.04729,0.14961 2.24419,0.84781 1.24678,0.69819 1.94497,1.69561 0.99742,1.44626 1.49613,3.24161 0.49871,1.74548 0.49871,3.69045 0,3.24161 -0.94755,5.18658 -0.89767,1.94497 -2.29406,2.99226 -1.34652,1.04729 -2.99226,1.39639 -1.59587,0.34909 -3.092,0.34909 l -5.13671,0 -0.59845,0 0,-36.35593 6.28374,0 q 2.14445,0 3.29149,0.6982 1.14703,0.69819 1.99483,1.94497 z m -10.52277,13.86412 5.63542,0 q 1.24677,0 2.29406,-0.59845 1.04729,-0.64832 1.79536,-1.69561 0.74806,-1.09716 1.14703,-2.49355 0.39897,-1.39639 0.39897,-2.94239 0,-1.546 -0.44884,-2.94238 -0.39897,-1.39639 -1.14703,-2.44368 -0.74807,-1.04729 -1.74549,-1.64574 -0.99742,-0.64832 -2.19432,-0.64832 l -5.73516,0 0,15.41012 z m 4.68787,18.80135 q 2.44368,0 4.03955,-0.69819 1.64574,-0.74807 2.59329,-1.94497 0.94755,-1.24677 1.29664,-2.84264 0.39897,-1.64574 0.3491,-3.39123 -0.0997,-4.58813 -2.09458,-6.73258 -1.94497,-2.14445 -6.184,-2.14445 l -4.68787,0 0,17.75406 4.68787,0 z"
         style="font-style:normal;font-variant:normal;font-weight:100;font-stretch:condensed;font-size:49.87095642px;font-family:'Tre Ingeniorer og En Sykepleier';-inkscape-font-specification:'Tre Ingeniorer og En Sykepleier Thin Condensed';fill:#ffffff;stroke:#ffffff;stroke-width:1;stroke-linejoin:bevel;stroke-opacity:1"
         id="path4145" />
      <path
         d="m 322.24834,535.41788 q -0.54858,0.0997 -1.14703,0.14961 -0.54858,0 -1.1969,0 l -4.68787,0 0,15.50987 -0.54858,0 -0.49871,0 0,-35.65773 0,-0.59845 0.59845,0 5.13671,0 q 2.69303,0 4.48838,0.8478 1.84523,0.84781 2.84265,2.39381 0.94755,1.49613 1.44626,3.39122 0.54858,1.84523 0.54858,3.74032 0,1.94497 -0.54858,3.84007 -0.49871,1.84522 -1.44626,3.29148 -0.69819,1.09716 -1.64574,1.84523 -0.94755,0.74806 -2.39381,1.04729 l -0.94755,0.19948 z m 4.08942,-3.64058 q 0.84781,-1.34651 1.34652,-3.04213 0.49871,-1.74548 0.49871,-3.54084 0,-1.74548 -0.49871,-3.44109 -0.49871,-1.74548 -1.34652,-3.092 -0.8478,-1.29665 -2.44368,-1.99484 -1.59587,-0.74806 -3.98967,-0.74806 l -4.68787,0 0,18.60186 4.68787,0 q 2.89251,0 4.23903,-0.69819 1.34652,-0.74806 2.19432,-2.04471 z m -3.14187,3.4411 6.93206,15.80909 -1.09716,0 -6.83232,-15.60961 0.99742,-0.19948 z"
         style="font-style:normal;font-variant:normal;font-weight:100;font-stretch:condensed;font-size:49.87095642px;font-family:'Tre Ingeniorer og En Sykepleier';-inkscape-font-specification:'Tre Ingeniorer og En Sykepleier Thin Condensed';fill:#ffffff;stroke:#ffffff;stroke-width:1;stroke-linejoin:bevel;stroke-opacity:1"
         id="path4147" />
      <path
         d="m 350.88597,514.87105 1.14703,0 -6.98193,17.65432 0,18.50212 -0.54859,0 -0.54858,0 0,-18.50212 -6.98193,-17.65432 1.14703,0 6.38348,16.6569 6.38349,-16.6569 z"
         style="font-style:normal;font-variant:normal;font-weight:100;font-stretch:condensed;font-size:49.87095642px;font-family:'Tre Ingeniorer og En Sykepleier';-inkscape-font-specification:'Tre Ingeniorer og En Sykepleier Thin Condensed';fill:#ffffff;stroke:#ffffff;stroke-width:1;stroke-linejoin:bevel;stroke-opacity:1"
         id="path4149" />
      <path
         d="m 368.20677,535.2184 0,-0.99742 6.5331,0.0499 0,8.97677 q 0,0.14961 -0.0499,0.79794 0,0.64832 -0.19949,1.546 -0.14961,0.89767 -0.59845,1.94496 -0.44884,1.04729 -1.24677,1.94497 -1.94497,2.09458 -5.33619,2.09458 -3.4411,0 -5.23645,-2.04471 -0.89768,-0.94755 -1.34652,-2.04471 -0.39897,-1.09716 -0.54858,-2.04471 -0.14961,-0.99742 -0.14961,-1.69561 0.0499,-0.69819 0.0499,-0.84781 l 0,-20.49696 q 0,-3.98968 2.3938,-6.23387 0.94755,-0.8478 2.19433,-1.34651 1.29664,-0.49871 2.64316,-0.49871 1.24677,0 2.49354,0.49871 1.29665,0.49871 2.34394,1.59587 1.04729,1.04729 1.69561,2.69303 0.64832,1.59587 0.64832,3.84006 l -1.04729,0 q 0,-1.94497 -0.54858,-3.34135 -0.54858,-1.44626 -1.44625,-2.34394 -0.84781,-0.94755 -1.94497,-1.39638 -1.09716,-0.44884 -2.19432,-0.44884 -1.14704,0 -2.29407,0.39896 -1.09716,0.39897 -1.99484,1.29665 -0.8478,0.84781 -1.39638,2.19432 -0.49871,1.29665 -0.49871,3.092 l 0,20.54684 0,0.0499 q 0,0 0,0.64832 0,0.59845 0.0997,1.49613 0.14961,0.8478 0.49871,1.84522 0.39897,0.99742 1.14703,1.79536 1.59587,1.74548 4.43852,1.74548 2.94238,0 4.58812,-1.74548 0.74807,-0.79794 1.09717,-1.74549 0.39896,-0.94754 0.54858,-1.74548 0.14961,-0.84781 0.14961,-1.39639 0,-0.59845 0,-0.59845 l 0,-0.0499 -0.0499,-7.97935 -5.43594,-0.0499 z"
         style="font-style:normal;font-variant:normal;font-weight:100;font-stretch:condensed;font-size:49.87095642px;font-family:'Tre Ingeniorer og En Sykepleier';-inkscape-font-specification:'Tre Ingeniorer og En Sykepleier Thin Condensed';fill:#ffffff;stroke:#ffffff;stroke-width:1;stroke-linejoin:bevel;stroke-opacity:1"
         id="path4151" />
      <path
         d="m 392.0708,535.2184 0,-0.99742 6.5331,0.0499 0,8.97677 q 0,0.14961 -0.0499,0.79794 0,0.64832 -0.19949,1.546 -0.14961,0.89767 -0.59845,1.94496 -0.44884,1.04729 -1.24677,1.94497 -1.94497,2.09458 -5.33619,2.09458 -3.4411,0 -5.23645,-2.04471 -0.89768,-0.94755 -1.34652,-2.04471 -0.39897,-1.09716 -0.54858,-2.04471 -0.14961,-0.99742 -0.14961,-1.69561 0.0499,-0.69819 0.0499,-0.84781 l 0,-20.49696 q 0,-3.98968 2.3938,-6.23387 0.94755,-0.8478 2.19432,-1.34651 1.29665,-0.49871 2.64317,-0.49871 1.24677,0 2.49354,0.49871 1.29665,0.49871 2.34394,1.59587 1.04729,1.04729 1.69561,2.69303 0.64832,1.59587 0.64832,3.84006 l -1.04729,0 q 0,-1.94497 -0.54858,-3.34135 -0.54858,-1.44626 -1.44626,-2.34394 -0.8478,-0.94755 -1.94496,-1.39638 -1.09716,-0.44884 -2.19432,-0.44884 -1.14704,0 -2.29407,0.39896 -1.09716,0.39897 -1.99484,1.29665 -0.8478,0.84781 -1.39638,2.19432 -0.49871,1.29665 -0.49871,3.092 l 0,20.54684 0,0.0499 q 0,0 0,0.64832 0,0.59845 0.0997,1.49613 0.14961,0.8478 0.49871,1.84522 0.39897,0.99742 1.14703,1.79536 1.59587,1.74548 4.43852,1.74548 2.94238,0 4.58812,-1.74548 0.74807,-0.79794 1.09716,-1.74549 0.39897,-0.94754 0.54858,-1.74548 0.14962,-0.84781 0.14962,-1.39639 0,-0.59845 0,-0.59845 l 0,-0.0499 -0.0499,-7.97935 -5.43594,-0.0499 z"
         style="font-style:normal;font-variant:normal;font-weight:100;font-stretch:condensed;font-size:49.87095642px;font-family:'Tre Ingeniorer og En Sykepleier';-inkscape-font-specification:'Tre Ingeniorer og En Sykepleier Thin Condensed';fill:#ffffff;stroke:#ffffff;stroke-width:1;stroke-linejoin:bevel;stroke-opacity:1"
         id="path4153" />
    </g>
  </g>
</svg>
