<?xml version="1.0" encoding="UTF-8" standalone="no"?>
<!-- Created with Inkscape (http://www.inkscape.org/) -->

<svg
   xmlns:dc="http://purl.org/dc/elements/1.1/"
   xmlns:cc="http://creativecommons.org/ns#"
   xmlns:rdf="http://www.w3.org/1999/02/22-rdf-syntax-ns#"
   xmlns:svg="http://www.w3.org/2000/svg"
   xmlns="http://www.w3.org/2000/svg"
   xmlns:sodipodi="http://sodipodi.sourceforge.net/DTD/sodipodi-0.dtd"
   xmlns:inkscape="http://www.inkscape.org/namespaces/inkscape"
   width="250"
   height="81.32"
   id="svg2"
   version="1.1"
   inkscape:version="0.48.4 r9939"
   sodipodi:docname="logo.svg"
   inkscape:export-filename="C:\GitHub\brygg\hjemmeside\img\logo.png"
   inkscape:export-xdpi="89.645844"
   inkscape:export-ydpi="89.645844">
  <defs
     id="defs4" />
  <sodipodi:namedview
     id="base"
     pagecolor="#ffffff"
     bordercolor="#666666"
     borderopacity="1.0"
     inkscape:pageopacity="1"
     inkscape:pageshadow="2"
     inkscape:zoom="2.8"
     inkscape:cx="105.58017"
     inkscape:cy="91.702616"
     inkscape:document-units="px"
     inkscape:current-layer="g3013"
     showgrid="false"
     inkscape:window-width="1680"
     inkscape:window-height="987"
     inkscape:window-x="1912"
     inkscape:window-y="22"
     inkscape:window-maximized="1"
     fit-margin-top="0"
     fit-margin-left="0"
     fit-margin-right="0"
     fit-margin-bottom="0" />
  <metadata
     id="metadata7">
    <rdf:RDF>
      <cc:Work
         rdf:about="">
        <dc:format>image/svg+xml</dc:format>
        <dc:type
           rdf:resource="http://purl.org/dc/dcmitype/StillImage" />
        <dc:title />
      </cc:Work>
    </rdf:RDF>
  </metadata>
  <g
     inkscape:label="Layer 1"
     inkscape:groupmode="layer"
     id="layer1"
     transform="translate(-3.5714285,-343.79418)">
    <g
       id="g3013"
       transform="matrix(0.63303326,0,0,0.63303326,1.3105955,156.00277)">
      <rect
         style="fill:#4d4d4d;fill-opacity:1;stroke:none"
         id="rect3786"
         width="394.91339"
         height="128.46629"
         x="3.5714285"
         y="296.64789" />
      <g
         id="text3788"
         style="font-size:14.2488451px;font-style:normal;font-variant:normal;font-weight:normal;font-stretch:normal;line-height:125%;letter-spacing:0px;word-spacing:0px;fill:#ffffff;fill-opacity:1;stroke:#ffffff;stroke-width:2;stroke-opacity:1;font-family:'Champagne &amp; Limousines';-inkscape-font-specification:'Champagne &amp; Limousines'">
        <path
           inkscape:connector-curvature="0"
           id="path3000"
           style="font-size:49.87095642px;font-weight:200;fill:#ffffff;stroke:#ffffff;stroke-width:1;stroke-linejoin:bevel;font-family:basic title font;-inkscape-font-specification:basic title font Ultra-Light"
           d="m 25.360228,314.45071 -8.279358,0 0,-0.44745 0,-0.49919 17.455139,0 0,0.49919 0,0.49768 0.05022,-0.0502 -8.17891,0 0,35.25881 -0.549421,0 -0.497675,0 z" />
        <path
           inkscape:connector-curvature="0"
           id="path3002"
           style="font-size:49.87095642px;font-weight:200;fill:#ffffff;stroke:#ffffff;stroke-width:1;stroke-linejoin:bevel;font-family:basic title font;-inkscape-font-specification:basic title font Ultra-Light"
           d="m 50.5103,334.05027 c -0.366293,0.067 -0.740437,0.10883 -1.122431,0.12556 -0.382019,0.0168 -0.789138,0.0251 -1.221358,0.0251 l -4.687577,0 0,15.50858 -0.549421,0 -0.499196,0 0,-35.65756 0,-0.59812 0.599644,0 5.13655,0 c 1.794863,4e-5 3.299047,0.28261 4.512555,0.84772 1.213477,0.56519 2.153021,1.36319 2.818634,2.39402 0.631079,0.99741 1.121144,2.11958 1.470195,3.36653 0.349012,1.247 0.523527,2.5021 0.523548,3.76528 -2.1e-5,1.29672 -0.174536,2.5683 -0.523548,3.81475 -0.349051,1.24649 -0.839116,2.35217 -1.470195,3.31707 -0.465731,0.73156 -1.014391,1.34668 -1.645979,1.84535 -0.631621,0.4987 -1.429878,0.84748 -2.394774,1.04633 z m 4.089455,-3.64049 c 0.56513,-0.89792 1.013848,-1.92041 1.346157,-3.06747 0.332271,-1.14701 0.498416,-2.31865 0.498436,-3.51492 -2e-5,-1.16375 -0.166165,-2.31915 -0.498436,-3.46622 -0.332309,-1.147 -0.781027,-2.16949 -1.346157,-3.06747 -0.565164,-0.86443 -1.379655,-1.53763 -2.443476,-2.01962 -1.06385,-0.48191 -2.393772,-0.72288 -3.989768,-0.72292 l -4.687577,0 0,18.60116 4.687577,0 c 1.927779,2e-5 3.340646,-0.24095 4.238606,-0.72292 0.897929,-0.48193 1.629474,-1.15513 2.194638,-2.01962 z m -3.142808,3.44111 6.932441,15.80992 -1.097319,0 -6.831993,-15.61054 z" />
        <path
           inkscape:connector-curvature="0"
           id="path3004"
           style="font-size:49.87095642px;font-weight:200;fill:#ffffff;stroke:#ffffff;stroke-width:1;stroke-linejoin:bevel;font-family:basic title font;-inkscape-font-specification:basic title font Ultra-Light"
           d="m 80.693429,348.76287 0,0.44897 0,0.49768 -14.062733,0 0,-0.49768 0,-35.20858 0,-0.54942 13.863359,0 0,0.54942 0,0.39875 -12.816264,0 0,18.85076 10.023502,0 0,0.4992 0,0.44897 -10.023502,0 0,14.56193 z" />
        <path
           inkscape:connector-curvature="0"
           id="path3006"
           style="font-size:49.87095642px;font-weight:200;fill:#ffffff;stroke:#ffffff;stroke-width:1;stroke-linejoin:bevel;font-family:basic title font;-inkscape-font-specification:basic title font Ultra-Light"
           d="m 115.93093,349.70952 0,-36.25568 0.5479,0 0.54942,0 0,36.25568 -0.54942,0 z" />
        <path
           inkscape:connector-curvature="0"
           id="path3008"
           style="font-size:49.87095642px;font-weight:200;fill:#ffffff;stroke:#ffffff;stroke-width:1;stroke-linejoin:bevel;font-family:basic title font;-inkscape-font-specification:basic title font Ultra-Light"
           d="m 143.21171,349.70952 -0.0989,0 -0.10045,0 -0.0989,0 -0.0502,0 z m -14.91045,0 -0.54942,0 -0.5479,0 0,-35.75648 0,-0.4992 0.89795,0 13.76443,31.76747 c 0.19885,0.46572 0.33988,0.83149 0.4231,1.09732 0.0832,0.26584 0.15826,0.48195 0.22525,0.64835 l 0,-33.51314 0.49767,0 0.54942,0 0,36.25568 -0.89794,0 -13.61529,-31.51788 c -0.0659,-0.16636 -0.20699,-0.50728 -0.4231,-1.02274 -0.21612,-0.5154 -0.35766,-0.92277 -0.42462,-1.22212 z m -0.35005,-36.25568 -0.0487,0 -0.0502,0 -0.0502,0 -0.0502,0 -0.0487,0 -0.0502,0 -0.0502,0 z" />
        <path
           inkscape:connector-curvature="0"
           id="path3010"
           style="font-size:49.87095642px;font-weight:200;fill:#ffffff;stroke:#ffffff;stroke-width:1;stroke-linejoin:bevel;font-family:basic title font;-inkscape-font-specification:basic title font Ultra-Light"
           d="m 160.65772,333.85089 0,-0.99687 6.53369,0.0502 0,8.9764 c -1e-5,0.0994 -0.008,0.36528 -0.0251,0.7975 -0.0168,0.43224 -0.0832,0.94767 -0.19937,1.54629 -0.1162,0.59864 -0.32394,1.24698 -0.62324,1.94504 -0.29933,0.69807 -0.71533,1.34641 -1.24799,1.94504 -1.29671,1.39613 -3.07535,2.09419 -5.33592,2.09419 -2.29408,0 -4.03924,-0.68132 -5.23548,-2.04396 -0.59863,-0.63211 -1.03924,-1.31394 -1.3218,-2.04549 -0.28258,-0.73154 -0.47384,-1.42149 -0.57378,-2.06984 -0.0999,-0.64834 -0.14154,-1.20512 -0.1248,-1.67033 0.0167,-0.4652 0.0251,-0.74803 0.0251,-0.84848 l 0,-20.49598 c -1e-5,-2.66032 0.798,-4.73828 2.39401,-6.23387 0.63109,-0.56511 1.37075,-1.01408 2.21899,-1.34692 0.84822,-0.33276 1.7208,-0.49916 2.61774,-0.49919 0.83096,3e-5 1.67057,0.16643 2.51881,0.49919 0.84821,0.33284 1.62136,0.85664 2.31944,1.57141 0.69804,0.71484 1.26319,1.61253 1.69544,2.69307 0.43221,1.08061 0.64833,2.36868 0.64835,3.86421 l -1.0471,0 c -2e-5,-1.29667 -0.1829,-2.41859 -0.54866,-3.36577 -0.36579,-0.94713 -0.83962,-1.72839 -1.42149,-2.34379 -0.58191,-0.61534 -1.23862,-1.07268 -1.97015,-1.37203 -0.73156,-0.29928 -1.46311,-0.44894 -2.19464,-0.44898 -0.76403,4e-5 -1.52018,0.13321 -2.26846,0.39951 -0.74829,0.26638 -1.41338,0.69024 -1.99526,1.27159 -0.5819,0.58141 -1.04736,1.3127 -1.39638,2.19387 -0.34904,0.88124 -0.52355,1.92047 -0.52355,3.1177 l 0,20.5462 0,0.0502 c 0,1e-5 0,0.20776 0,0.62324 0,0.4155 0.0416,0.91418 0.1248,1.49607 0.0832,0.58189 0.24934,1.20538 0.49844,1.87046 0.24908,0.66509 0.62322,1.26347 1.12243,1.79513 1.06332,1.16378 2.54264,1.74567 4.43798,1.74567 1.96227,0 3.49182,-0.58189 4.58865,-1.74567 0.49816,-0.53166 0.87205,-1.11329 1.12167,-1.7449 0.24958,-0.6316 0.42435,-1.22186 0.52431,-1.77078 0.0999,-0.54891 0.14989,-1.01437 0.14991,-1.39638 -2e-5,-0.382 -2e-5,-0.57301 0,-0.57301 l 0,-0.0502 -0.0502,-7.97953 z" />
        <path
           inkscape:connector-curvature="0"
           id="path3012"
           style="font-size:49.87095642px;font-weight:200;fill:#ffffff;stroke:#ffffff;stroke-width:1;stroke-linejoin:bevel;font-family:basic title font;-inkscape-font-specification:basic title font Ultra-Light"
           d="m 190.8576,348.76287 0,0.44897 0,0.49768 -14.06273,0 0,-0.49768 0,-35.20858 0,-0.54942 13.86335,0 0,0.54942 0,0.39875 -12.81626,0 0,18.85076 10.0235,0 0,0.4992 0,0.44897 -10.0235,0 0,14.56193 z" />
        <path
           inkscape:connector-curvature="0"
           id="path3014"
           style="font-size:49.87095642px;font-weight:200;fill:#ffffff;stroke:#ffffff;stroke-width:1;stroke-linejoin:bevel;font-family:basic title font;-inkscape-font-specification:basic title font Ultra-Light"
           d="m 216.07006,349.70952 -0.0989,0 -0.10045,0 -0.0989,0 -0.0502,0 z m -14.91046,0 -0.54942,0 -0.54789,0 0,-35.75648 0,-0.4992 0.89794,0 13.76443,31.76747 c 0.19885,0.46572 0.33988,0.83149 0.4231,1.09732 0.0832,0.26584 0.15826,0.48195 0.22525,0.64835 l 0,-33.51314 0.49767,0 0.54943,0 0,36.25568 -0.89795,0 -13.61528,-31.51788 c -0.066,-0.16636 -0.20699,-0.50728 -0.4231,-1.02274 -0.21612,-0.5154 -0.35766,-0.92277 -0.42462,-1.22212 z m -0.35004,-36.25568 -0.0487,0 -0.0502,0 -0.0502,0 -0.0502,0 -0.0487,0 -0.0502,0 -0.0502,0 z" />
        <path
           inkscape:connector-curvature="0"
           id="path3016"
           style="font-size:49.87095642px;font-weight:200;fill:#ffffff;stroke:#ffffff;stroke-width:1;stroke-linejoin:bevel;font-family:basic title font;-inkscape-font-specification:basic title font Ultra-Light"
           d="m 226.48471,349.70952 0,-36.25568 0.5479,0 0.54942,0 0,36.25568 -0.54942,0 z" />
        <path
           inkscape:connector-curvature="0"
           id="path3018"
           style="font-size:49.87095642px;font-weight:200;fill:#ffffff;stroke:#ffffff;stroke-width:1;stroke-linejoin:bevel;font-family:basic title font;-inkscape-font-specification:basic title font Ultra-Light"
           d="m 251.52215,341.93088 c -2e-5,0 -2e-5,0.19101 0,0.57301 -2e-5,0.38201 -0.05,0.84747 -0.14991,1.39638 -0.1,0.54892 -0.26636,1.13918 -0.49919,1.77078 -0.23288,0.63161 -0.5984,1.21324 -1.09656,1.7449 -0.26585,0.29932 -0.61488,0.55703 -1.0471,0.77315 -0.43224,0.21611 -0.90608,0.399 -1.42149,0.54866 -0.51545,0.14966 -1.03925,0.25771 -1.57141,0.32417 -0.53218,0.0665 -1.04736,0.0997 -1.54553,0.0997 -0.9639,0 -1.97777,-0.14129 -3.04159,-0.42386 -1.06385,-0.28258 -1.86211,-0.70644 -2.39478,-1.27158 -0.49819,-0.53167 -0.8637,-1.13004 -1.09656,-1.79513 -0.23286,-0.66509 -0.39926,-1.29695 -0.49919,-1.89558 -0.1,-0.59862 -0.14155,-1.10568 -0.1248,-1.52118 0.0167,-0.41548 0.0251,-0.62323 0.0251,-0.62324 l 0,-20.49749 c 0,-1.46205 0.22448,-2.65043 0.67346,-3.56515 0.44897,-0.91465 1.02248,-1.62971 1.72055,-2.14518 0.69806,-0.51539 1.47095,-0.86442 2.31868,-1.04709 0.84771,-0.1826 1.65408,-0.27392 2.41912,-0.27395 0.39874,3e-5 0.8642,0.0333 1.39638,0.0997 0.53216,0.0665 1.06408,0.18292 1.59576,0.34928 0.53165,0.16644 1.03871,0.37418 1.52118,0.62324 0.48244,0.24912 0.87332,0.54007 1.17265,0.87283 0.53165,0.56518 0.94714,1.26324 1.24647,2.09419 0.2993,0.83101 0.44896,1.82839 0.44898,2.99214 z m 1.09732,-20.79732 c -2e-5,-2.72628 -0.84774,-4.83721 -2.54316,-6.3328 -0.33282,-0.29928 -0.74019,-0.55699 -1.22212,-0.77315 -0.48196,-0.21608 -0.99739,-0.39896 -1.54629,-0.54866 -0.54893,-0.14962 -1.09759,-0.25767 -1.64598,-0.32417 -0.54842,-0.0664 -1.03874,-0.0996 -1.47096,-0.0997 -0.46572,4e-5 -0.96441,0.0416 -1.49606,0.1248 -0.53168,0.0832 -1.0636,0.19967 -1.59576,0.34929 -0.53218,0.14969 -1.03924,0.3407 -1.52118,0.57301 -0.48195,0.23238 -0.88932,0.49822 -1.22212,0.7975 -0.83098,0.73158 -1.43773,1.62115 -1.82024,2.66872 -0.38252,1.04763 -0.57377,2.23601 -0.57377,3.56515 l 0,20.44727 c 0,0.10046 0,0.38328 0,0.84848 0,0.46522 0.05,1.02199 0.14991,1.67033 0.0999,0.64835 0.2912,1.3383 0.57377,2.06984 0.28257,0.73155 0.70643,1.39664 1.27158,1.99527 0.63211,0.66458 1.54654,1.17138 2.7433,1.52041 1.19675,0.34904 2.36027,0.52355 3.49057,0.52355 1.13029,0 2.30218,-0.17451 3.51569,-0.52355 1.21348,-0.34903 2.15251,-0.85583 2.81711,-1.52041 0.56614,-0.59863 0.99051,-1.24698 1.2731,-1.94504 0.28256,-0.69806 0.4903,-1.35478 0.62324,-1.97016 0.13289,-0.61536 0.19935,-1.13916 0.19937,-1.5714 -2e-5,-0.43222 -2e-5,-0.69806 0,-0.7975 z m -5.13655,-16.45675 0.74727,0.64835 -4.4882,5.18677 -0.69857,-0.64835 z" />
        <path
           inkscape:connector-curvature="0"
           id="path3020"
           style="font-size:49.87095642px;font-weight:200;fill:#ffffff;stroke:#ffffff;stroke-width:1;stroke-linejoin:bevel;font-family:basic title font;-inkscape-font-specification:basic title font Ultra-Light"
           d="m 269.18276,334.05027 c -0.3663,0.067 -0.74044,0.10883 -1.12244,0.12556 -0.38202,0.0168 -0.78913,0.0251 -1.22135,0.0251 l -4.68758,0 0,15.50858 -0.54942,0 -0.4992,0 0,-35.65756 0,-0.59812 0.59965,0 5.13655,0 c 1.79486,4e-5 3.29904,0.28261 4.51255,0.84772 1.21348,0.56519 2.15302,1.36319 2.81864,2.39402 0.63107,0.99741 1.12114,2.11958 1.47019,3.36653 0.34901,1.247 0.52353,2.5021 0.52355,3.76528 -2e-5,1.29672 -0.17454,2.5683 -0.52355,3.81475 -0.34905,1.24649 -0.83912,2.35217 -1.47019,3.31707 -0.46574,0.73156 -1.0144,1.34668 -1.64598,1.84535 -0.63163,0.4987 -1.42988,0.84748 -2.39478,1.04633 z m 4.08945,-3.64049 c 0.56513,-0.89792 1.01385,-1.92041 1.34616,-3.06747 0.33227,-1.14701 0.49841,-2.31865 0.49843,-3.51492 -2e-5,-1.16375 -0.16616,-2.31915 -0.49843,-3.46622 -0.33231,-1.147 -0.78103,-2.16949 -1.34616,-3.06747 -0.56516,-0.86443 -1.37966,-1.53763 -2.44348,-2.01962 -1.06385,-0.48191 -2.39377,-0.72288 -3.98976,-0.72292 l -4.68758,0 0,18.60116 4.68758,0 c 1.92778,2e-5 3.34064,-0.24095 4.2386,-0.72292 0.89793,-0.48193 1.62948,-1.15513 2.19464,-2.01962 z m -3.14281,3.44111 6.93244,15.80992 -1.09732,0 -6.83199,-15.61054 z" />
        <path
           inkscape:connector-curvature="0"
           id="path3022"
           style="font-size:49.87095642px;font-weight:200;fill:#ffffff;stroke:#ffffff;stroke-width:1;stroke-linejoin:bevel;font-family:basic title font;-inkscape-font-specification:basic title font Ultra-Light"
           d="m 299.36588,348.76287 0,0.44897 0,0.49768 -14.06273,0 0,-0.49768 0,-35.20858 0,-0.54942 13.86336,0 0,0.54942 0,0.39875 -12.81626,0 0,18.85076 10.0235,0 0,0.4992 0,0.44897 -10.0235,0 0,14.56193 z" />
        <path
           inkscape:connector-curvature="0"
           id="path3024"
           style="font-size:49.87095642px;font-weight:200;fill:#ffffff;stroke:#ffffff;stroke-width:1;stroke-linejoin:bevel;font-family:basic title font;-inkscape-font-specification:basic title font Ultra-Light"
           d="m 317.39784,334.05027 c -0.36629,0.067 -0.74043,0.10883 -1.12243,0.12556 -0.38202,0.0168 -0.78914,0.0251 -1.22136,0.0251 l -4.68757,0 0,15.50858 -0.54942,0 -0.4992,0 0,-35.65756 0,-0.59812 0.59964,0 5.13655,0 c 1.79487,4e-5 3.29905,0.28261 4.51256,0.84772 1.21348,0.56519 2.15302,1.36319 2.81863,2.39402 0.63108,0.99741 1.12115,2.11958 1.4702,3.36653 0.34901,1.247 0.52353,2.5021 0.52355,3.76528 -2e-5,1.29672 -0.17454,2.5683 -0.52355,3.81475 -0.34905,1.24649 -0.83912,2.35217 -1.4702,3.31707 -0.46573,0.73156 -1.01439,1.34668 -1.64598,1.84535 -0.63162,0.4987 -1.42987,0.84748 -2.39477,1.04633 z m 4.08946,-3.64049 c 0.56513,-0.89792 1.01385,-1.92041 1.34615,-3.06747 0.33228,-1.14701 0.49842,-2.31865 0.49844,-3.51492 -2e-5,-1.16375 -0.16616,-2.31915 -0.49844,-3.46622 -0.3323,-1.147 -0.78102,-2.16949 -1.34615,-3.06747 -0.56517,-0.86443 -1.37966,-1.53763 -2.44348,-2.01962 -1.06385,-0.48191 -2.39377,-0.72288 -3.98977,-0.72292 l -4.68757,0 0,18.60116 4.68757,0 c 1.92778,2e-5 3.34065,-0.24095 4.23861,-0.72292 0.89793,-0.48193 1.62947,-1.15513 2.19464,-2.01962 z m -3.14281,3.44111 6.93244,15.80992 -1.09732,0 -6.83199,-15.61054 z" />
        <path
           inkscape:connector-curvature="0"
           id="path3026"
           style="font-size:49.87095642px;font-weight:200;fill:#ffffff;stroke:#ffffff;stroke-width:1;stroke-linejoin:bevel;font-family:basic title font;-inkscape-font-specification:basic title font Ultra-Light"
           d="m 34.586234,404.21935 c -2e-5,0.0994 -2e-5,0.36527 0,0.7975 -2e-5,0.43223 -0.06673,0.95603 -0.200136,1.5714 -0.133443,0.61538 -0.341441,1.27209 -0.623995,1.97015 -0.282593,0.69807 -0.706453,1.34641 -1.271582,1.94504 -0.664598,0.66458 -1.603634,1.17139 -2.817112,1.52042 -1.213508,0.34903 -2.385401,0.52355 -3.515684,0.52355 -1.130304,0 -2.294081,-0.17452 -3.491332,-0.52355 -1.197267,-0.34903 -2.111445,-0.85584 -2.742537,-1.52042 -0.565152,-0.59863 -0.989012,-1.26371 -1.271582,-1.99526 -0.282577,-0.73154 -0.473834,-1.42149 -0.573771,-2.06984 -0.09994,-0.64834 -0.149915,-1.20512 -0.149912,-1.67033 -3e-6,-0.4652 -3e-6,-0.74803 0,-0.84848 l 0,-20.44728 c -3e-6,-1.32913 0.191254,-2.51751 0.573772,-3.56515 0.382511,-1.04756 0.989257,-1.93714 1.820241,-2.66872 0.332792,-0.29928 0.740165,-0.56511 1.222119,-0.7975 0.481941,-0.23231 0.988746,-0.42331 1.520419,-0.57301 0.531656,-0.14962 1.063573,-0.26605 1.595755,-0.34928 0.532161,-0.0832 1.031104,-0.12476 1.496828,-0.1248 0.43222,4e-5 0.922538,0.0333 1.470956,0.0997 0.548393,0.0665 1.096798,0.17455 1.645218,0.32417 0.548391,0.14969 1.063821,0.33258 1.546292,0.54866 0.482439,0.21615 0.889558,0.47387 1.221357,0.77315 1.696438,1.49559 2.544666,3.60652 2.544686,6.33279 z m -1.048618,-20.7471 c -1.8e-5,-1.16375 -0.157793,-2.16112 -0.473323,-2.99213 -0.315567,-0.83095 -0.72294,-1.52901 -1.222119,-2.0942 -0.331799,-0.33276 -0.738918,-0.6237 -1.221357,-0.87283 -0.482471,-0.24905 -0.981159,-0.4568 -1.496068,-0.62323 -0.514937,-0.16637 -1.038484,-0.28279 -1.570643,-0.34929 -0.532184,-0.0664 -0.997644,-0.0996 -1.396381,-0.0997 -0.765039,4e-5 -1.571413,0.0914 -2.419125,0.27395 -0.847729,0.18267 -1.62062,0.5317 -2.318676,1.0471 -0.69807,0.51546 -1.271587,1.23052 -1.720555,2.14517 -0.448976,0.91472 -0.673462,2.1031 -0.673458,3.56515 l 0,20.4975 c -4e-6,10e-6 -0.0084,0.20775 -0.02511,0.62323 -0.01675,0.4155 0.02485,0.92256 0.124799,1.52118 0.09994,0.59864 0.266335,1.2305 0.499196,1.89558 0.232852,0.66509 0.598371,1.26347 1.096559,1.79513 0.531658,0.56515 1.329662,0.98901 2.394013,1.27158 1.064334,0.28258 2.078453,0.42386 3.042359,0.42386 0.498171,0 1.013347,-0.0332 1.545531,-0.0997 0.532159,-0.0665 1.05596,-0.17452 1.571404,-0.32418 0.515416,-0.14965 0.989246,-0.33254 1.421493,-0.54866 0.432215,-0.21611 0.781246,-0.47383 1.047095,-0.77314 0.498165,-0.53166 0.863684,-1.1133 1.096558,-1.74491 0.232839,-0.6316 0.399238,-1.22186 0.499197,-1.77078 0.09992,-0.5489 0.149893,-1.01436 0.149911,-1.39638 -1.8e-5,-0.382 -1.8e-5,-0.573 0,-0.57301 z" />
        <path
           inkscape:connector-curvature="0"
           id="path3028"
           style="font-size:49.87095642px;font-weight:200;fill:#ffffff;stroke:#ffffff;stroke-width:1;stroke-linejoin:bevel;font-family:basic title font;-inkscape-font-specification:basic title font Ultra-Light"
           d="m 50.201345,396.18959 0,-0.99687 6.533692,0.0502 0,8.97641 c -1.9e-5,0.0994 -0.0084,0.36527 -0.02511,0.7975 -0.01676,0.43223 -0.08322,0.94766 -0.199374,1.54629 -0.116194,0.59863 -0.323938,1.24698 -0.623235,1.94504 -0.299333,0.69806 -0.715329,1.34641 -1.247991,1.94504 -1.296709,1.39613 -3.075349,2.09419 -5.335925,2.09419 -2.294081,0 -4.039238,-0.68132 -5.235476,-2.04397 -0.598636,-0.63211 -1.039237,-1.31394 -1.321806,-2.04549 -0.282578,-0.73154 -0.473835,-1.42148 -0.573771,-2.06984 -0.09995,-0.64834 -0.141545,-1.20511 -0.124799,-1.67033 0.01674,-0.46519 0.02511,-0.74802 0.02511,-0.84848 l 0,-20.49598 c -5e-6,-2.66032 0.797999,-4.73827 2.394013,-6.23386 0.63109,-0.56512 1.370753,-1.01409 2.218989,-1.34692 0.848219,-0.33276 1.720797,-0.49916 2.617738,-0.4992 0.830967,4e-5 1.670571,0.16644 2.518812,0.4992 0.848214,0.33283 1.621359,0.85663 2.319438,1.5714 0.698046,0.71484 1.263193,1.61253 1.695442,2.69308 0.432213,1.0806 0.648328,2.36867 0.648347,3.8642 l -1.047095,0 c -1.8e-5,-1.29666 -0.182904,-2.41858 -0.54866,-3.36577 -0.36579,-0.94712 -0.83962,-1.72838 -1.421493,-2.34379 -0.581904,-0.61533 -1.23862,-1.07268 -1.970152,-1.37203 -0.731559,-0.29928 -1.463105,-0.44893 -2.194639,-0.44897 -0.764025,4e-5 -1.520175,0.13321 -2.268452,0.39951 -0.748297,0.26637 -1.413384,0.69023 -1.995265,1.27158 -0.581895,0.58142 -1.047355,1.31271 -1.39638,2.19388 -0.349038,0.88123 -0.523554,1.92046 -0.523548,3.11769 l 0,20.54621 0,0.0502 c -6e-6,10e-6 -6e-6,0.20775 0,0.62323 -6e-6,0.4155 0.04159,0.91419 0.124799,1.49607 0.08319,0.5819 0.249339,1.20538 0.498436,1.87047 0.249084,0.66509 0.623228,1.26347 1.122431,1.79513 1.063321,1.16378 2.542646,1.74566 4.437979,1.74566 1.962276,0 3.491825,-0.58188 4.588652,-1.74566 0.498165,-0.53166 0.872055,-1.1133 1.12167,-1.74491 0.249581,-0.6316 0.42435,-1.22186 0.524309,-1.77078 0.09992,-0.5489 0.149893,-1.01436 0.149911,-1.39638 -1.8e-5,-0.382 -1.8e-5,-0.573 0,-0.57301 l 0,-0.0502 -0.05022,-7.97954 z" />
        <path
           inkscape:connector-curvature="0"
           id="path3030"
           style="font-size:49.87095642px;font-weight:200;fill:#ffffff;stroke:#ffffff;stroke-width:1;stroke-linejoin:bevel;font-family:basic title font;-inkscape-font-specification:basic title font Ultra-Light"
           d="m 105.33669,411.10156 0,0.44898 0,0.49767 -14.062729,0 0,-0.49767 0,-35.20858 0,-0.54942 13.863359,0 0,0.54942 0,0.39875 -12.816264,0 0,18.85076 10.023504,0 0,0.49919 0,0.44897 -10.023504,0 0,14.56193 z" />
        <path
           inkscape:connector-curvature="0"
           id="path3032"
           style="font-size:49.87095642px;font-weight:200;fill:#ffffff;stroke:#ffffff;stroke-width:1;stroke-linejoin:bevel;font-family:basic title font;-inkscape-font-specification:basic title font Ultra-Light"
           d="m 130.54917,412.04821 -0.0989,0 -0.10044,0 -0.0989,0 -0.0502,0 z m -14.91045,0 -0.54943,0 -0.54789,0 0,-35.75648 0,-0.49919 0.89794,0 13.76443,31.76747 c 0.19885,0.46572 0.33988,0.83149 0.4231,1.09732 0.0832,0.26583 0.15827,0.48195 0.22525,0.64834 l 0,-33.51313 0.49768,0 0.54942,0 0,36.25567 -0.89795,0 -13.61528,-31.51787 c -0.066,-0.16637 -0.20699,-0.50728 -0.4231,-1.02274 -0.21612,-0.5154 -0.35766,-0.92277 -0.42462,-1.22212 z m -0.35005,-36.25567 -0.0487,0 -0.0502,0 -0.0502,0 -0.0502,0 -0.0487,0 -0.0502,0 -0.0502,0 z" />
        <path
           inkscape:connector-curvature="0"
           id="path3034"
           style="font-size:49.87095642px;font-weight:200;fill:#ffffff;stroke:#ffffff;stroke-width:1;stroke-linejoin:bevel;font-family:basic title font;-inkscape-font-specification:basic title font Ultra-Light"
           d="m 166.69679,410.75152 c -0.83099,-0.73053 -1.45422,-1.71091 -1.86971,-2.94115 -0.41549,-1.23023 -0.62324,-2.54392 -0.62323,-3.94107 l 1.04709,0 c 0,1.59602 0.22448,2.89271 0.67346,3.89008 0.44897,0.99738 1.01412,1.77053 1.69544,2.31944 0.68132,0.54892 1.42098,0.91469 2.21899,1.09732 0.798,0.18263 1.54603,0.27395 2.24411,0.27395 0.86445,0 1.72054,-0.12455 2.56827,-0.37364 0.84771,-0.24909 1.61248,-0.64809 2.29433,-1.197 0.68181,-0.54891 1.23047,-1.27209 1.64598,-2.16953 0.41547,-0.89743 0.62321,-1.9945 0.62323,-3.2912 -2e-5,-1.49656 -0.21613,-2.80163 -0.64835,-3.91519 -0.43225,-1.11354 -1.00576,-2.10255 -1.72055,-2.96702 -0.71482,-0.86445 -1.5212,-1.6376 -2.41913,-2.31944 -0.89795,-0.68181 -1.81213,-1.35502 -2.74253,-2.01962 -0.89796,-0.63209 -1.75405,-1.25558 -2.56828,-1.87046 -0.81424,-0.61484 -1.55416,-1.30479 -2.21975,-2.06984 -1.4631,-1.76137 -2.19464,-3.72264 -2.19464,-5.88383 0,-0.10041 0,-0.35838 0,-0.7739 0,-0.41546 0.0583,-0.90578 0.17503,-1.47096 0.11667,-0.56511 0.30793,-1.18023 0.57377,-1.84535 0.26582,-0.66506 0.68131,-1.28017 1.24647,-1.84535 1.29668,-1.3961 3.10881,-2.09416 5.43637,-2.09419 2.36001,3e-5 4.13865,0.69809 5.33592,2.09419 0.49817,0.59866 0.85532,1.25538 1.07145,1.97015 0.2161,0.71484 0.35764,1.39641 0.42462,2.04473 0.067,0.64837 0.0921,1.19703 0.0753,1.64597 -0.0168,0.44901 -0.0251,0.69023 -0.0251,0.72369 l -1.0471,0 c -2e-5,3e-5 0.008,-0.1996 0.0243,-0.59889 0.0162,-0.39922 -0.009,-0.89791 -0.0753,-1.49606 -0.0665,-0.5981 -0.19103,-1.22133 -0.37364,-1.86971 -0.18265,-0.64831 -0.49008,-1.22208 -0.9223,-1.72131 -0.49921,-0.56512 -1.11433,-0.99735 -1.84535,-1.2967 -0.73105,-0.29928 -1.612,-0.44893 -2.64285,-0.44897 -2.02825,4e-5 -3.57454,0.58192 -4.63888,1.74567 -0.4647,0.49923 -0.81348,1.04789 -1.04633,1.64598 -0.23286,0.59815 -0.39926,1.15493 -0.4992,1.67033 -0.0999,0.51546 -0.14991,0.95606 -0.14991,1.3218 0,0.3658 0,0.54869 0,0.54866 0,1.09684 0.18288,2.06936 0.54866,2.91756 0.36577,0.84825 0.84797,1.62977 1.44661,2.34455 0.59862,0.71483 1.28856,1.37129 2.06984,1.96939 0.78125,0.59815 1.58737,1.19652 2.41836,1.79513 0.96388,0.6646 1.91129,1.36266 2.84222,2.09419 0.93091,0.73157 1.77888,1.56305 2.54393,2.49446 1.7289,2.12769 2.59337,4.62113 2.59339,7.48034 -2e-5,2.69283 -0.89797,4.78752 -2.69384,6.2841 -1.46209,1.19624 -3.29045,1.79436 -5.48507,1.79436 -0.76504,0 -1.63788,-0.10805 -2.6185,-0.32417 -0.98065,-0.21611 -1.9032,-0.68994 -2.76765,-1.42149 z" />
        <path
           inkscape:connector-curvature="0"
           id="path3036"
           style="font-size:49.87095642px;font-weight:200;fill:#ffffff;stroke:#ffffff;stroke-width:1;stroke-linejoin:bevel;font-family:basic title font;-inkscape-font-specification:basic title font Ultra-Light"
           d="m 201.19462,375.84276 1.14755,0 -6.98267,17.65452 0,18.50223 -0.5479,0 -0.5479,0 0,-18.50223 -6.98266,-17.65452 1.14754,0 6.38302,16.65612 z" />
        <path
           inkscape:connector-curvature="0"
           id="path3038"
           style="font-size:49.87095642px;font-weight:200;fill:#ffffff;stroke:#ffffff;stroke-width:1;stroke-linejoin:bevel;font-family:basic title font;-inkscape-font-specification:basic title font Ultra-Light"
           d="m 225.4985,375.89299 1.34539,0 -9.226,14.86023 c 0.067,0.0335 0.1088,0.067 0.12556,0.10044 0.0167,0.0335 0.0413,0.067 0.0738,0.10045 l 10.57292,20.89473 -1.19624,0 -10.17418,-20.09723 -5.2857,8.62788 0,11.62002 -0.54942,0 -0.5479,0 0,-36.15675 0.5479,0 0.54942,0 0,22.64039 z" />
        <path
           inkscape:connector-curvature="0"
           id="path3040"
           style="font-size:49.87095642px;font-weight:200;fill:#ffffff;stroke:#ffffff;stroke-width:1;stroke-linejoin:bevel;font-family:basic title font;-inkscape-font-specification:basic title font Ultra-Light"
           d="m 250.27416,411.10156 0,0.44898 0,0.49767 -14.06273,0 0,-0.49767 0,-35.20858 0,-0.54942 13.86336,0 0,0.54942 0,0.39875 -12.81626,0 0,18.85076 10.0235,0 0,0.49919 0,0.44897 -10.0235,0 0,14.56193 z" />
        <path
           inkscape:connector-curvature="0"
           id="path3042"
           style="font-size:49.87095642px;font-weight:200;fill:#ffffff;stroke:#ffffff;stroke-width:1;stroke-linejoin:bevel;font-family:basic title font;-inkscape-font-specification:basic title font Ultra-Light"
           d="m 272.29513,379.03427 c 0.63209,0.99741 1.12267,2.11959 1.47172,3.36653 0.34901,1.24701 0.52352,2.5021 0.52354,3.76529 -2e-5,1.29671 -0.17453,2.56829 -0.52354,3.81474 -0.34905,1.24649 -0.83963,2.35218 -1.47172,3.31707 -0.69808,1.06335 -1.59577,1.86947 -2.69307,2.41836 -1.09734,0.54893 -2.64337,0.82339 -4.63812,0.82337 l -4.68758,0 0,15.50858 -0.5479,0 -0.49919,0 0,-35.65755 0,-0.59812 0.59812,0 5.13655,0 c 1.79588,3e-5 3.30057,0.28261 4.51408,0.84772 1.21348,0.56518 2.15251,1.36318 2.81711,2.39401 z m -0.89795,13.71421 c 0.56513,-0.89792 1.01411,-1.92041 1.34692,-3.06747 0.33278,-1.14701 0.49918,-2.31865 0.4992,-3.51492 -2e-5,-1.16375 -0.16642,-2.31916 -0.4992,-3.46622 -0.33281,-1.14701 -0.78179,-2.1695 -1.34692,-3.06748 -0.56516,-0.86442 -1.37965,-1.53763 -2.44347,-2.01961 -1.06385,-0.48191 -2.39377,-0.72289 -3.98977,-0.72292 l -4.68758,0 0,18.60116 4.68758,0 c 1.92879,1e-5 3.34192,-0.24096 4.23937,-0.72292 0.89742,-0.48193 1.62871,-1.15514 2.19387,-2.01962 z" />
        <path
           inkscape:connector-curvature="0"
           id="path3044"
           style="font-size:49.87095642px;font-weight:200;fill:#ffffff;stroke:#ffffff;stroke-width:1;stroke-linejoin:bevel;font-family:basic title font;-inkscape-font-specification:basic title font Ultra-Light"
           d="m 284.39454,412.04821 0,-0.49767 0,-35.758 0.54942,0 0.5479,0 0,35.30902 13.36568,0 0,0.44898 0,0.49767 z" />
        <path
           inkscape:connector-curvature="0"
           id="path3046"
           style="font-size:49.87095642px;font-weight:200;fill:#ffffff;stroke:#ffffff;stroke-width:1;stroke-linejoin:bevel;font-family:basic title font;-inkscape-font-specification:basic title font Ultra-Light"
           d="m 323.42472,411.10156 0,0.44898 0,0.49767 -14.06273,0 0,-0.49767 0,-35.20858 0,-0.54942 13.86336,0 0,0.54942 0,0.39875 -12.81627,0 0,18.85076 10.02351,0 0,0.49919 0,0.44897 -10.02351,0 0,14.56193 z" />
        <path
           inkscape:connector-curvature="0"
           id="path3048"
           style="font-size:49.87095642px;font-weight:200;fill:#ffffff;stroke:#ffffff;stroke-width:1;stroke-linejoin:bevel;font-family:basic title font;-inkscape-font-specification:basic title font Ultra-Light"
           d="m 333.72674,412.04821 0,-36.25567 0.5479,0 0.54942,0 0,36.25567 -0.54942,0 z" />
        <path
           inkscape:connector-curvature="0"
           id="path3050"
           style="font-size:49.87095642px;font-weight:200;fill:#ffffff;stroke:#ffffff;stroke-width:1;stroke-linejoin:bevel;font-family:basic title font;-inkscape-font-specification:basic title font Ultra-Light"
           d="m 359.56168,411.10156 0,0.44898 0,0.49767 -14.06273,0 0,-0.49767 0,-35.20858 0,-0.54942 13.86336,0 0,0.54942 0,0.39875 -12.81626,0 0,18.85076 10.0235,0 0,0.49919 0,0.44897 -10.0235,0 0,14.56193 z" />
        <path
           inkscape:connector-curvature="0"
           id="path3052"
           style="font-size:49.87095642px;font-weight:200;fill:#ffffff;stroke:#ffffff;stroke-width:1;stroke-linejoin:bevel;font-family:basic title font;-inkscape-font-specification:basic title font Ultra-Light"
           d="m 377.59364,396.38896 c -0.36629,0.067 -0.74043,0.10884 -1.12243,0.12556 -0.38202,0.0168 -0.78914,0.0251 -1.22136,0.0251 l -4.68757,0 0,15.50858 -0.54942,0 -0.4992,0 0,-35.65755 0,-0.59812 0.59964,0 5.13655,0 c 1.79487,3e-5 3.29905,0.28261 4.51256,0.84772 1.21348,0.56518 2.15302,1.36318 2.81863,2.39401 0.63108,0.99741 1.12115,2.11959 1.4702,3.36653 0.34901,1.24701 0.52353,2.5021 0.52355,3.76529 -2e-5,1.29671 -0.17454,2.56829 -0.52355,3.81474 -0.34905,1.24649 -0.83912,2.35218 -1.4702,3.31707 -0.46573,0.73157 -1.01439,1.34668 -1.64598,1.84535 -0.63162,0.49871 -1.42987,0.84749 -2.39477,1.04634 z m 4.08946,-3.64048 c 0.56513,-0.89792 1.01385,-1.92041 1.34616,-3.06747 0.33227,-1.14701 0.49841,-2.31865 0.49843,-3.51492 -2e-5,-1.16375 -0.16616,-2.31916 -0.49843,-3.46622 -0.33231,-1.14701 -0.78103,-2.1695 -1.34616,-3.06748 -0.56517,-0.86442 -1.37966,-1.53763 -2.44348,-2.01961 -1.06385,-0.48191 -2.39377,-0.72289 -3.98977,-0.72292 l -4.68757,0 0,18.60116 4.68757,0 c 1.92778,1e-5 3.34065,-0.24096 4.23861,-0.72292 0.89793,-0.48193 1.62947,-1.15514 2.19464,-2.01962 z m -3.14281,3.44111 6.93244,15.80992 -1.09732,0 -6.83199,-15.61055 z" />
      </g>
    </g>
  </g>
</svg>
